<?xml version="1.0" encoding="UTF-8" standalone="no"?>
<svg
   xmlns:osb="http://www.openswatchbook.org/uri/2009/osb"
   xmlns:dc="http://purl.org/dc/elements/1.1/"
   xmlns:cc="http://creativecommons.org/ns#"
   xmlns:rdf="http://www.w3.org/1999/02/22-rdf-syntax-ns#"
   xmlns:svg="http://www.w3.org/2000/svg"
   xmlns="http://www.w3.org/2000/svg"
   xmlns:sodipodi="http://sodipodi.sourceforge.net/DTD/sodipodi-0.dtd"
   xmlns:inkscape="http://www.inkscape.org/namespaces/inkscape"
   inkscape:export-ydpi="90.000000"
   inkscape:export-xdpi="90.000000"
   width="24"
   height="24"
   id="svg11300"
   sodipodi:version="0.32"
   inkscape:version="1.0.2 (e86c870879, 2021-01-15, custom)"
   sodipodi:docname="activities_arch.svg"
   inkscape:output_extension="org.inkscape.output.svg.inkscape"
   version="1.0"
   style="display:inline;enable-background:new">
  <sodipodi:namedview
     stroke="#ef2929"
     fill="#f57900"
     id="base"
     pagecolor="#bebebe"
     bordercolor="#525252"
     borderopacity="1"
     inkscape:pageopacity="1"
     inkscape:pageshadow="2"
     inkscape:zoom="10.80603"
     inkscape:cx="13.863335"
     inkscape:cy="9.9136446"
     inkscape:current-layer="layer1"
     showgrid="true"
     inkscape:grid-bbox="true"
     inkscape:document-units="px"
     inkscape:showpageshadow="true"
     inkscape:window-width="1920"
     inkscape:window-height="1020"
     inkscape:window-x="0"
     inkscape:window-y="0"
     width="400px"
     height="300px"
     inkscape:snap-nodes="true"
     inkscape:snap-bbox="true"
     gridtolerance="10000"
     inkscape:object-nodes="true"
     inkscape:snap-grids="true"
     showguides="false"
     inkscape:guide-bbox="true"
     inkscape:window-maximized="1"
     inkscape:bbox-nodes="true"
     inkscape:bbox-paths="false"
     inkscape:snap-bbox-edge-midpoints="false"
     inkscape:snap-bbox-midpoints="false"
     objecttolerance="10000"
     guidetolerance="10000"
     borderlayer="true"
     showborder="true"
     guidecolor="#ff0b00"
     guideopacity="1"
     guidehicolor="#001aff"
     guidehiopacity="0.49803922"
     inkscape:document-rotation="0">
    <inkscape:grid
       type="xygrid"
       id="grid3123"
       empspacing="4"
       visible="true"
       enabled="true"
       snapvisiblegridlinesonly="true" />
    <sodipodi:guide
       position="12,12"
       orientation="1,0"
       id="guide4135"
       inkscape:locked="false" />
  </sodipodi:namedview>
  <defs
     id="defs3">
    <linearGradient
       id="selected_bg_color"
       osb:paint="solid">
      <stop
         style="stop-color:#5294e2;stop-opacity:1;"
         offset="0"
         id="stop4140" />
    </linearGradient>
  </defs>
  <metadata
     id="metadata4">
    <rdf:RDF>
      <cc:Work
         rdf:about="">
        <dc:format>image/svg+xml</dc:format>
        <dc:type
           rdf:resource="http://purl.org/dc/dcmitype/StillImage" />
        <dc:creator>
          <cc:Agent>
            <dc:title />
          </cc:Agent>
        </dc:creator>
        <dc:source />
        <cc:license
           rdf:resource="" />
        <dc:title></dc:title>
        <dc:subject>
          <rdf:Bag />
        </dc:subject>
        <dc:date />
        <dc:rights>
          <cc:Agent>
            <dc:title />
          </cc:Agent>
        </dc:rights>
        <dc:publisher>
          <cc:Agent>
            <dc:title />
          </cc:Agent>
        </dc:publisher>
        <dc:identifier />
        <dc:relation />
        <dc:language />
        <dc:coverage />
        <dc:description />
        <dc:contributor>
          <cc:Agent>
            <dc:title />
          </cc:Agent>
        </dc:contributor>
      </cc:Work>
      <cc:Work
         rdf:about="">
        <dc:format>image/svg+xml</dc:format>
        <dc:type
           rdf:resource="http://purl.org/dc/dcmitype/StillImage" />
      </cc:Work>
    </rdf:RDF>
  </metadata>
  <g
     style="display:inline"
     inkscape:groupmode="layer"
     inkscape:label="Base"
     id="layer1"
     transform="translate(0,-276)">
    <g
       id="g3824"
       transform="matrix(0.04492188,0,0,0.04492188,7.2992862,282.64702)">
      <path
         d="m -733.62329,72.267944 c 0,203.804876 -165.21649,369.021366 -369.02141,369.021366 -203.8048,0 -369.0213,-165.21649 -369.0213,-369.021366 0,-203.804874 165.2165,-369.021364 369.0213,-369.021364 203.80492,0 369.02141,165.21649 369.02141,369.021364 z"
         id="path4878"
         style="fill:none"
         transform="matrix(0.69372682,0,0,0.69372682,872.81612,67.513546)" />
      <path
         d="M 107.84949,-98.602257 C 92.493787,-60.954304 83.231987,-36.328024 66.135387,0.20085614 76.617787,11.312106 89.484387,24.251686 110.3795,38.865776 87.915087,29.621786 72.591587,20.341076 61.140187,10.710446 39.259887,56.367046 4.9797874,121.40283 -64.585822,246.39777 c 54.6762094,-31.56545 97.060109,-51.0259 136.559909,-58.45149 -1.696,-7.29506 -2.6605,-15.1861 -2.595,-23.41953 l 0.065,-1.7516 c 0.8677,-35.02952 19.09,-61.96722 40.676113,-60.13821 21.5861,1.82902 38.3647,31.72582 37.4971,66.75537 -0.1631,6.59145 -0.9065,12.93234 -2.2057,18.81346 39.0709,7.64297 81.0017,27.0536 134.93811,58.192 C 269.7144,226.81765 260.2216,209.1676 251.1563,192.3577 236.8771,181.29028 221.983,166.88599 191.602,151.29245 c 20.8822,5.42606 35.8334,11.68629 47.4876,18.68371 C 146.9204,-1.6272139 139.4566,-24.429744 107.84949,-98.602257 Z"
         id="path2518"
         style="fill:none" />
    </g>
    <path
       style="fill:none;stroke-width:0.0925409"
       d="M 4.7871606,17.114118 C 5.9686158,15.04223 8.2584754,10.78965 9.2272368,8.8682935 l 0.8274452,-1.6410833 0.384631,0.2639077 c 0.46565,0.3194971 1.730012,0.9633976 1.784579,0.9088306 C 12.245417,8.3784234 12.064165,8.1998824 11.821109,8.0031907 11.578053,7.8064991 11.14393,7.4234836 10.856392,7.152045 L 10.333594,6.6585206 10.865413,5.4375573 c 0.292501,-0.6715297 0.69132,-1.6279178 0.886265,-2.1253067 0.194945,-0.497389 0.38393,-0.8721797 0.419967,-0.8328683 0.03604,0.039311 0.365595,0.7794132 0.732352,1.6446708 0.774294,1.8267275 2.313872,4.9711643 3.844585,7.8521859 0.5909,1.112159 1.061216,2.03386 1.045147,2.048224 -0.01607,0.01436 -0.32072,-0.08964 -0.677002,-0.231118 -0.356283,-0.141479 -0.793539,-0.284846 -0.97168,-0.318592 l -0.323893,-0.06136 0.323893,0.203741 c 2.075772,1.305735 2.295216,1.50891 2.958551,2.739218 0.306903,0.56922 0.558004,1.05867 0.558004,1.087666 0,0.029 -0.593419,-0.256717 -1.318708,-0.634919 -1.550731,-0.808627 -2.606656,-1.25388 -3.64489,-1.536947 l -0.752986,-0.205296 9.35e-4,-0.890627 c 0.0018,-1.69005 -0.661335,-2.831147 -1.712097,-2.946216 -0.49376,-0.05407 -0.914673,0.208674 -1.334139,0.832807 -0.368263,0.547948 -0.519486,1.257439 -0.478085,2.243019 l 0.03215,0.765276 -0.5089748,0.111637 c -0.8785846,0.192708 -2.2138315,0.73289 -3.741608,1.513692 -0.8108955,0.414425 -1.5131317,0.768951 -1.560525,0.787835 -0.047393,0.01888 0.017627,-0.147689 0.1444884,-0.370163 z"
       id="path84"
       transform="translate(0,276)" />
    <path
       style="fill:none;stroke-width:0.0925409"
       d="M 4.7871606,17.114118 C 5.9686158,15.04223 8.2584754,10.78965 9.2272368,8.8682935 l 0.8274452,-1.6410833 0.384631,0.2639077 c 0.46565,0.3194971 1.730012,0.9633976 1.784579,0.9088306 C 12.245417,8.3784234 12.064165,8.1998824 11.821109,8.0031907 11.578053,7.8064991 11.14393,7.4234836 10.856392,7.152045 L 10.333594,6.6585206 10.865413,5.4375573 c 0.292501,-0.6715297 0.69132,-1.6279178 0.886265,-2.1253067 0.194945,-0.497389 0.38393,-0.8721797 0.419967,-0.8328683 0.03604,0.039311 0.365595,0.7794132 0.732352,1.6446708 0.774294,1.8267275 2.313872,4.9711643 3.844585,7.8521859 0.5909,1.112159 1.061216,2.03386 1.045147,2.048224 -0.01607,0.01436 -0.32072,-0.08964 -0.677002,-0.231118 -0.356283,-0.141479 -0.793539,-0.284846 -0.97168,-0.318592 l -0.323893,-0.06136 0.323893,0.203741 c 2.075772,1.305735 2.295216,1.50891 2.958551,2.739218 0.306903,0.56922 0.558004,1.05867 0.558004,1.087666 0,0.029 -0.593419,-0.256717 -1.318708,-0.634919 -1.550731,-0.808627 -2.606656,-1.25388 -3.64489,-1.536947 l -0.752986,-0.205296 9.35e-4,-0.890627 c 0.0018,-1.69005 -0.661335,-2.831147 -1.712097,-2.946216 -0.49376,-0.05407 -0.914673,0.208674 -1.334139,0.832807 -0.368263,0.547948 -0.519486,1.257439 -0.478085,2.243019 l 0.03215,0.765276 -0.5089748,0.111637 c -0.8785846,0.192708 -2.2138315,0.73289 -3.741608,1.513692 -0.8108955,0.414425 -1.5131317,0.768951 -1.560525,0.787835 -0.047393,0.01888 0.017627,-0.147689 0.1444884,-0.370163 z"
       id="path86"
       transform="translate(0,276)" />
    <path
       style="fill:none;stroke-width:0.0925409"
       d="M 4.7871606,17.114118 C 5.9686158,15.04223 8.2584754,10.78965 9.2272368,8.8682935 l 0.8274452,-1.6410833 0.384631,0.2639077 c 0.46565,0.3194971 1.730012,0.9633976 1.784579,0.9088306 C 12.245417,8.3784234 12.064165,8.1998824 11.821109,8.0031907 11.578053,7.8064991 11.14393,7.4234836 10.856392,7.152045 L 10.333594,6.6585206 10.865413,5.4375573 c 0.292501,-0.6715297 0.69132,-1.6279178 0.886265,-2.1253067 0.194945,-0.497389 0.38393,-0.8721797 0.419967,-0.8328683 0.03604,0.039311 0.365595,0.7794132 0.732352,1.6446708 0.774294,1.8267275 2.313872,4.9711643 3.844585,7.8521859 0.5909,1.112159 1.061216,2.03386 1.045147,2.048224 -0.01607,0.01436 -0.32072,-0.08964 -0.677002,-0.231118 -0.356283,-0.141479 -0.793539,-0.284846 -0.97168,-0.318592 l -0.323893,-0.06136 0.323893,0.203741 c 2.075772,1.305735 2.295216,1.50891 2.958551,2.739218 0.306903,0.56922 0.558004,1.05867 0.558004,1.087666 0,0.029 -0.593419,-0.256717 -1.318708,-0.634919 -1.550731,-0.808627 -2.606656,-1.25388 -3.64489,-1.536947 l -0.752986,-0.205296 9.35e-4,-0.890627 c 0.0018,-1.69005 -0.661335,-2.831147 -1.712097,-2.946216 -0.49376,-0.05407 -0.914673,0.208674 -1.334139,0.832807 -0.368263,0.547948 -0.519486,1.257439 -0.478085,2.243019 l 0.03215,0.765276 -0.5089748,0.111637 c -0.8785846,0.192708 -2.2138315,0.73289 -3.741608,1.513692 -0.8108955,0.414425 -1.5131317,0.768951 -1.560525,0.787835 -0.047393,0.01888 0.017627,-0.147689 0.1444884,-0.370163 z"
       id="path88"
       transform="translate(0,276)" />
    <path
       style="fill:none;stroke-width:0.0925409"
       d="M 4.7871606,17.114118 C 5.9686158,15.04223 8.2584754,10.78965 9.2272368,8.8682935 l 0.8274452,-1.6410833 0.384631,0.2639077 c 0.46565,0.3194971 1.730012,0.9633976 1.784579,0.9088306 C 12.245417,8.3784234 12.064165,8.1998824 11.821109,8.0031907 11.578053,7.8064991 11.14393,7.4234836 10.856392,7.152045 L 10.333594,6.6585206 10.865413,5.4375573 c 0.292501,-0.6715297 0.69132,-1.6279178 0.886265,-2.1253067 0.194945,-0.497389 0.38393,-0.8721797 0.419967,-0.8328683 0.03604,0.039311 0.365595,0.7794132 0.732352,1.6446708 0.774294,1.8267275 2.313872,4.9711643 3.844585,7.8521859 0.5909,1.112159 1.061216,2.03386 1.045147,2.048224 -0.01607,0.01436 -0.32072,-0.08964 -0.677002,-0.231118 -0.356283,-0.141479 -0.793539,-0.284846 -0.97168,-0.318592 l -0.323893,-0.06136 0.323893,0.203741 c 2.075772,1.305735 2.295216,1.50891 2.958551,2.739218 0.306903,0.56922 0.558004,1.05867 0.558004,1.087666 0,0.029 -0.593419,-0.256717 -1.318708,-0.634919 -1.550731,-0.808627 -2.606656,-1.25388 -3.64489,-1.536947 l -0.752986,-0.205296 9.35e-4,-0.890627 c 0.0018,-1.69005 -0.661335,-2.831147 -1.712097,-2.946216 -0.49376,-0.05407 -0.914673,0.208674 -1.334139,0.832807 -0.368263,0.547948 -0.519486,1.257439 -0.478085,2.243019 l 0.03215,0.765276 -0.5089748,0.111637 c -0.8785846,0.192708 -2.2138315,0.73289 -3.741608,1.513692 -0.8108955,0.414425 -1.5131317,0.768951 -1.560525,0.787835 -0.047393,0.01888 0.017627,-0.147689 0.1444884,-0.370163 z"
       id="path90"
       transform="translate(0,276)" />
    <path
       style="fill:none;stroke-width:0.0925409"
       d="M 4.7871606,17.114118 C 5.9686158,15.04223 8.2584754,10.78965 9.2272368,8.8682935 l 0.8274452,-1.6410833 0.384631,0.2639077 c 0.46565,0.3194971 1.730012,0.9633976 1.784579,0.9088306 C 12.245417,8.3784234 12.064165,8.1998824 11.821109,8.0031907 11.578053,7.8064991 11.14393,7.4234836 10.856392,7.152045 L 10.333594,6.6585206 10.865413,5.4375573 c 0.292501,-0.6715297 0.69132,-1.6279178 0.886265,-2.1253067 0.194945,-0.497389 0.38393,-0.8721797 0.419967,-0.8328683 0.03604,0.039311 0.365595,0.7794132 0.732352,1.6446708 0.774294,1.8267275 2.313872,4.9711643 3.844585,7.8521859 0.5909,1.112159 1.061216,2.03386 1.045147,2.048224 -0.01607,0.01436 -0.32072,-0.08964 -0.677002,-0.231118 -0.356283,-0.141479 -0.793539,-0.284846 -0.97168,-0.318592 l -0.323893,-0.06136 0.323893,0.203741 c 2.075772,1.305735 2.295216,1.50891 2.958551,2.739218 0.306903,0.56922 0.558004,1.05867 0.558004,1.087666 0,0.029 -0.593419,-0.256717 -1.318708,-0.634919 -1.550731,-0.808627 -2.606656,-1.25388 -3.64489,-1.536947 l -0.752986,-0.205296 9.35e-4,-0.890627 c 0.0018,-1.69005 -0.661335,-2.831147 -1.712097,-2.946216 -0.49376,-0.05407 -0.914673,0.208674 -1.334139,0.832807 -0.368263,0.547948 -0.519486,1.257439 -0.478085,2.243019 l 0.03215,0.765276 -0.5089748,0.111637 c -0.8785846,0.192708 -2.2138315,0.73289 -3.741608,1.513692 -0.8108955,0.414425 -1.5131317,0.768951 -1.560525,0.787835 -0.047393,0.01888 0.017627,-0.147689 0.1444884,-0.370163 z"
       id="path92"
       transform="translate(0,276)" />
    <path
       style="fill:none;stroke-width:0.0925409"
       d="M 4.7871606,17.114118 C 5.9686158,15.04223 8.2584754,10.78965 9.2272368,8.8682935 l 0.8274452,-1.6410833 0.384631,0.2639077 c 0.46565,0.3194971 1.730012,0.9633976 1.784579,0.9088306 C 12.245417,8.3784234 12.064165,8.1998824 11.821109,8.0031907 11.578053,7.8064991 11.14393,7.4234836 10.856392,7.152045 L 10.333594,6.6585206 10.865413,5.4375573 c 0.292501,-0.6715297 0.69132,-1.6279178 0.886265,-2.1253067 0.194945,-0.497389 0.38393,-0.8721797 0.419967,-0.8328683 0.03604,0.039311 0.365595,0.7794132 0.732352,1.6446708 0.774294,1.8267275 2.313872,4.9711643 3.844585,7.8521859 0.5909,1.112159 1.061216,2.03386 1.045147,2.048224 -0.01607,0.01436 -0.32072,-0.08964 -0.677002,-0.231118 -0.356283,-0.141479 -0.793539,-0.284846 -0.97168,-0.318592 l -0.323893,-0.06136 0.323893,0.203741 c 2.075772,1.305735 2.295216,1.50891 2.958551,2.739218 0.306903,0.56922 0.558004,1.05867 0.558004,1.087666 0,0.029 -0.593419,-0.256717 -1.318708,-0.634919 -1.550731,-0.808627 -2.606656,-1.25388 -3.64489,-1.536947 l -0.752986,-0.205296 9.35e-4,-0.890627 c 0.0018,-1.69005 -0.661335,-2.831147 -1.712097,-2.946216 -0.49376,-0.05407 -0.914673,0.208674 -1.334139,0.832807 -0.368263,0.547948 -0.519486,1.257439 -0.478085,2.243019 l 0.03215,0.765276 -0.5089748,0.111637 c -0.8785846,0.192708 -2.2138315,0.73289 -3.741608,1.513692 -0.8108955,0.414425 -1.5131317,0.768951 -1.560525,0.787835 -0.047393,0.01888 0.017627,-0.147689 0.1444884,-0.370163 z"
       id="path94"
       transform="translate(0,276)" />
    <path
       style="fill:none;stroke-width:0.0925409"
       d="M 4.7871606,17.114118 C 5.9686158,15.04223 8.2584754,10.78965 9.2272368,8.8682935 l 0.8274452,-1.6410833 0.384631,0.2639077 c 0.46565,0.3194971 1.730012,0.9633976 1.784579,0.9088306 C 12.245417,8.3784234 12.064165,8.1998824 11.821109,8.0031907 11.578053,7.8064991 11.14393,7.4234836 10.856392,7.152045 L 10.333594,6.6585206 10.865413,5.4375573 c 0.292501,-0.6715297 0.69132,-1.6279178 0.886265,-2.1253067 0.194945,-0.497389 0.38393,-0.8721797 0.419967,-0.8328683 0.03604,0.039311 0.365595,0.7794132 0.732352,1.6446708 0.774294,1.8267275 2.313872,4.9711643 3.844585,7.8521859 0.5909,1.112159 1.061216,2.03386 1.045147,2.048224 -0.01607,0.01436 -0.32072,-0.08964 -0.677002,-0.231118 -0.356283,-0.141479 -0.793539,-0.284846 -0.97168,-0.318592 l -0.323893,-0.06136 0.323893,0.203741 c 2.075772,1.305735 2.295216,1.50891 2.958551,2.739218 0.306903,0.56922 0.558004,1.05867 0.558004,1.087666 0,0.029 -0.593419,-0.256717 -1.318708,-0.634919 -1.550731,-0.808627 -2.606656,-1.25388 -3.64489,-1.536947 l -0.752986,-0.205296 9.35e-4,-0.890627 c 0.0018,-1.69005 -0.661335,-2.831147 -1.712097,-2.946216 -0.49376,-0.05407 -0.914673,0.208674 -1.334139,0.832807 -0.368263,0.547948 -0.519486,1.257439 -0.478085,2.243019 l 0.03215,0.765276 -0.5089748,0.111637 c -0.8785846,0.192708 -2.2138315,0.73289 -3.741608,1.513692 -0.8108955,0.414425 -1.5131317,0.768951 -1.560525,0.787835 -0.047393,0.01888 0.017627,-0.147689 0.1444884,-0.370163 z"
       id="path96"
       transform="translate(0,276)" />
    <path
       style="fill:none;stroke-width:0.0925409"
       d="M 4.7871606,17.114118 C 5.9686158,15.04223 8.2584754,10.78965 9.2272368,8.8682935 l 0.8274452,-1.6410833 0.384631,0.2639077 c 0.46565,0.3194971 1.730012,0.9633976 1.784579,0.9088306 C 12.245417,8.3784234 12.064165,8.1998824 11.821109,8.0031907 11.578053,7.8064991 11.14393,7.4234836 10.856392,7.152045 L 10.333594,6.6585206 10.865413,5.4375573 c 0.292501,-0.6715297 0.69132,-1.6279178 0.886265,-2.1253067 0.194945,-0.497389 0.38393,-0.8721797 0.419967,-0.8328683 0.03604,0.039311 0.365595,0.7794132 0.732352,1.6446708 0.774294,1.8267275 2.313872,4.9711643 3.844585,7.8521859 0.5909,1.112159 1.061216,2.03386 1.045147,2.048224 -0.01607,0.01436 -0.32072,-0.08964 -0.677002,-0.231118 -0.356283,-0.141479 -0.793539,-0.284846 -0.97168,-0.318592 l -0.323893,-0.06136 0.323893,0.203741 c 2.075772,1.305735 2.295216,1.50891 2.958551,2.739218 0.306903,0.56922 0.558004,1.05867 0.558004,1.087666 0,0.029 -0.593419,-0.256717 -1.318708,-0.634919 -1.55128,-0.808914 -2.60667,-1.253884 -3.646236,-1.537316 l -0.754333,-0.205664 0.0068,-0.844889 c 0.0061,-0.757536 -0.02583,-0.92476 -0.309037,-1.617429 -0.446001,-1.090823 -1.050944,-1.549923 -1.795918,-1.362947 -0.371421,0.09322 -0.85461,0.583486 -1.132223,1.148804 -0.237685,0.484012 -0.258197,0.611389 -0.258197,1.603386 v 1.077605 l -0.5089748,0.11187 c -0.8795243,0.193316 -2.2145718,0.733501 -3.741608,1.513925 -0.8108955,0.414425 -1.5131317,0.768951 -1.560525,0.787835 -0.047393,0.01888 0.017627,-0.147689 0.1444884,-0.370163 z"
       id="path98"
       transform="translate(0,276)" />
    <path
       style="fill:none;stroke-width:0.0925409"
       d="M 4.7871606,17.114118 C 5.9686158,15.04223 8.2584754,10.78965 9.2272368,8.8682935 l 0.8274452,-1.6410833 0.384631,0.2639077 c 0.46565,0.3194971 1.730012,0.9633976 1.784579,0.9088306 C 12.245417,8.3784234 12.064165,8.1998824 11.821109,8.0031907 11.578053,7.8064991 11.14393,7.4234836 10.856392,7.152045 L 10.333594,6.6585206 10.865413,5.4375573 c 0.292501,-0.6715297 0.69132,-1.6279178 0.886265,-2.1253067 0.194945,-0.497389 0.38393,-0.8721797 0.419967,-0.8328683 0.03604,0.039311 0.365595,0.7794132 0.732352,1.6446708 0.774294,1.8267275 2.313872,4.9711643 3.844585,7.8521859 0.5909,1.112159 1.061216,2.03386 1.045147,2.048224 -0.01607,0.01436 -0.32072,-0.08964 -0.677002,-0.231118 -0.356283,-0.141479 -0.793539,-0.284846 -0.97168,-0.318592 l -0.323893,-0.06136 0.323893,0.203741 c 2.075772,1.305735 2.295216,1.50891 2.958551,2.739218 0.306903,0.56922 0.558004,1.05867 0.558004,1.087666 0,0.029 -0.593419,-0.256717 -1.318708,-0.634919 -1.550731,-0.808627 -2.606656,-1.25388 -3.64489,-1.536947 l -0.752986,-0.205296 9.35e-4,-0.890627 c 0.0018,-1.69005 -0.661335,-2.831147 -1.712097,-2.946216 -0.49376,-0.05407 -0.914673,0.208674 -1.334139,0.832807 -0.368263,0.547948 -0.519486,1.257439 -0.478085,2.243019 l 0.03215,0.765276 -0.5089748,0.111637 c -0.8785846,0.192708 -2.2138315,0.73289 -3.741608,1.513692 -0.8108955,0.414425 -1.5131317,0.768951 -1.560525,0.787835 -0.047393,0.01888 0.017627,-0.147689 0.1444884,-0.370163 z"
       id="path100"
       transform="translate(0,276)" />
    <path
       style="fill:#ffffff;stroke-width:0.0925409"
       d="M 10.886289,23.321928 C 6.3085335,22.750789 2.5761963,19.649185 1.2037056,15.275619 -0.04769585,11.287915 1.0646595,6.8450767 4.0658812,3.8438549 5.6895223,2.2202139 7.8087471,1.1018086 10.129887,0.64362059 11.046747,0.4626344 13.43806,0.48741727 14.367898,0.68754208 16.57788,1.163187 18.425442,2.1339291 20.023302,3.6589927 c 2.073137,1.978689 3.269718,4.4694285 3.517375,7.3215863 0.498706,5.743355 -3.42404,10.982041 -9.107637,12.162925 -1.01621,0.211139 -2.632737,0.29246 -3.546751,0.178424 z M 6.520791,16.625371 c 1.0196466,-0.518499 2.3578456,-1.050856 3.2697355,-1.300753 l 0.7248605,-0.198643 0.01547,-1.058997 c 0.01371,-0.938523 0.04388,-1.119636 0.26526,-1.592036 0.294781,-0.629038 0.735494,-1.063232 1.16004,-1.142877 1.102264,-0.206786 2.066673,1.457415 1.901321,3.280949 -0.04355,0.480304 -0.02861,0.569679 0.09523,0.569679 0.57711,0 2.77005,0.891138 4.672471,1.898737 0.697278,0.369306 1.281258,0.659229 1.297733,0.644271 0.01647,-0.01496 -0.246548,-0.541198 -0.584494,-1.169425 -0.657703,-1.222639 -0.939239,-1.543473 -2.027984,-2.311068 -0.725347,-0.511389 -0.649534,-0.578567 0.199595,-0.176862 0.318109,0.150491 0.57838,0.254793 0.57838,0.231782 0,-0.02301 -0.569969,-1.114383 -1.2666,-2.42527 C 15.264854,8.945056 13.591455,5.515247 12.803963,3.6398605 12.478416,2.8645795 12.185511,2.2295174 12.153065,2.2286114 c -0.03245,-9.069e-4 -0.175308,0.2794459 -0.31747,0.623004 -0.142162,0.3435582 -0.567686,1.353411 -0.945608,2.2441174 l -0.687132,1.6194662 0.680708,0.6245274 c 0.37439,0.34349 0.637112,0.6245831 0.583828,0.6246512 C 11.414107,7.9644457 11.085195,7.777106 10.736478,7.5480673 10.38776,7.3190285 10.07647,7.1316331 10.044723,7.1316331 c -0.03175,0 -0.2794731,0.4476667 -0.5505014,0.9948149 -0.6334135,1.2787274 -2.6058739,4.974753 -4.0072134,7.508776 -0.6020621,1.088701 -1.0946584,2.016681 -1.0946584,2.062176 0,0.0455 0.3019148,-0.0871 0.6709217,-0.294658 0.3690069,-0.207558 1.0248907,-0.557375 1.4575195,-0.777371 z"
       id="path102"
       transform="translate(0,276)" />
    <path
       style="fill:none"
       d="M 10.307726,23.189081 C 7.9867584,22.747634 5.9617978,21.720388 4.3362511,20.159798 1.997972,17.914957 0.78325383,15.112447 0.78325383,11.962582 c 0,-1.931385 0.37343437,-3.4753834 1.25795057,-5.2011126 C 3.4541388,4.0047739 5.8329282,2.0023637 8.8343141,1.0431859 10.302206,0.57407976 11.992478,0.44025652 13.717575,0.65656548 c 4.05129,0.50798892 7.795779,3.57458572 9.170446,7.51025422 1.01127,2.8952613 0.821489,5.9679123 -0.539071,8.7278803 -1.597235,3.240075 -4.423214,5.439071 -7.977206,6.207354 -0.959859,0.207496 -3.180604,0.255052 -4.064018,0.08703 z M 5.6416523,17.14991 c 1.3908351,-0.745229 2.4631332,-1.209551 3.7694483,-1.63223 l 1.1783024,-0.381257 0.0016,-0.97833 c 0.002,-1.233449 0.155755,-1.716691 0.738527,-2.321307 0.385549,-0.4 0.475078,-0.44827 0.831427,-0.44827 0.346873,0 0.450674,0.05168 0.789883,0.393298 0.546264,0.550136 0.795205,1.257741 0.868532,2.468757 l 0.05843,0.964966 0.471506,0.10591 c 0.757269,0.170098 2.185499,0.769859 3.914081,1.643654 0.885148,0.44744 1.634429,0.788458 1.665069,0.757819 0.07618,-0.07618 -0.792194,-1.704837 -1.195766,-2.242695 -0.180071,-0.239989 -0.587916,-0.643953 -0.906322,-0.897698 -0.587486,-0.468181 -0.638177,-0.645616 -0.105794,-0.37031 0.160874,0.08319 0.31854,0.125211 0.350372,0.09338 0.03183,-0.03183 -0.265932,-0.669965 -0.661697,-1.418073 C 16.121693,10.453694 13.703319,5.5512988 12.959002,3.8662463 12.55604,2.9539841 12.186282,2.235432 12.129471,2.2542158 c -0.05637,0.018639 -0.528544,1.029986 -1.049267,2.2474366 l -0.946767,2.2135466 0.530335,0.4856728 c 0.604119,0.5532426 0.589659,0.6062095 -0.05689,0.2083841 -0.248157,-0.1526925 -0.495133,-0.2776228 -0.548836,-0.2776228 -0.0537,0 -0.4819985,0.7391706 -0.9517674,1.6426014 -0.7789532,1.4980345 -2.1590838,4.0707335 -4.0087377,7.4726795 -0.387425,0.712565 -0.704585,1.346321 -0.7048001,1.408345 -5.09e-4,0.147291 0.1276892,0.09542 1.2489115,-0.505349 z"
       id="path104"
       transform="translate(0,276)" />
    <path
       style="fill:none"
       d="M 4.7871606,17.114118 C 5.9686158,15.04223 8.2584754,10.78965 9.2272368,8.8682935 l 0.8274452,-1.6410833 0.384631,0.2639077 c 0.46565,0.3194971 1.730012,0.9633976 1.784579,0.9088306 C 12.245417,8.3784234 12.064165,8.1998824 11.821109,8.0031907 11.578053,7.8064991 11.14393,7.4234836 10.856392,7.152045 L 10.333594,6.6585206 10.865413,5.4375573 c 0.292501,-0.6715297 0.69132,-1.6279178 0.886265,-2.1253067 0.194945,-0.497389 0.38393,-0.8721797 0.419967,-0.8328683 0.03604,0.039311 0.365595,0.7794132 0.732352,1.6446708 0.774294,1.8267275 2.313872,4.9711643 3.844585,7.8521859 0.5909,1.112159 1.061216,2.03386 1.045147,2.048224 -0.01607,0.01436 -0.32072,-0.08964 -0.677002,-0.231118 -0.356283,-0.141479 -0.793539,-0.284846 -0.97168,-0.318592 l -0.323893,-0.06136 0.323893,0.203741 c 2.075772,1.305735 2.295216,1.50891 2.958551,2.739218 0.306903,0.56922 0.558004,1.05867 0.558004,1.087666 0,0.029 -0.593419,-0.256717 -1.318708,-0.634919 -1.550731,-0.808627 -2.606656,-1.25388 -3.64489,-1.536947 l -0.752986,-0.205296 9.35e-4,-0.890627 c 0.0018,-1.69005 -0.661335,-2.831147 -1.712097,-2.946216 -0.49376,-0.05407 -0.914673,0.208674 -1.334139,0.832807 -0.368263,0.547948 -0.519486,1.257439 -0.478085,2.243019 l 0.03215,0.765276 -0.5089748,0.111637 c -0.8785846,0.192708 -2.2138315,0.73289 -3.741608,1.513692 -0.8108955,0.414425 -1.5131317,0.768951 -1.560525,0.787835 -0.047393,0.01888 0.017627,-0.147689 0.1444884,-0.370163 z"
       id="path106"
       transform="translate(0,276)" />
    <path
       style="fill:#ffffff;stroke-width:0.0925409"
       d=""
       id="path108"
       transform="translate(0,276)" />
    <path
       style="fill:none"
       d="m 4.8683002,16.964106 c 0.895394,-1.564938 3.358944,-6.14794 4.2050725,-7.822798 0.6701868,-1.3265927 1.0063463,-1.9020609 1.0834863,-1.8548117 0.06151,0.037676 0.257591,0.1679784 0.435733,0.2895602 0.424782,0.2899144 1.581217,0.8739747 1.6313,0.823892 C 12.245417,8.3784234 12.064165,8.2024933 11.821109,8.0089926 11.578053,7.815492 11.145078,7.4309937 10.858943,7.1545521 l -0.520247,-0.5026212 0.621,-1.4490207 c 0.34155,-0.7969614 0.738896,-1.7521921 0.882991,-2.1227349 0.144095,-0.3705427 0.29169,-0.6412249 0.327988,-0.601516 0.0363,0.039709 0.386751,0.8217796 0.778783,1.7379347 0.763031,1.783156 2.551638,5.4170207 3.995134,8.116804 0.48734,0.911476 0.871189,1.670718 0.852997,1.687205 -0.01819,0.01649 -0.32458,-0.08578 -0.680862,-0.227258 -0.356283,-0.141479 -0.793539,-0.286654 -0.97168,-0.322609 -0.268787,-0.05425 -0.189771,0.01949 0.464427,0.433417 1.540846,0.974931 1.874512,1.30299 2.494124,2.452201 0.306903,0.56922 0.558004,1.059161 0.558004,1.088759 0,0.0296 -0.551775,-0.235615 -1.226167,-0.589361 -1.374757,-0.721116 -2.951697,-1.382078 -3.882513,-1.627322 l -0.620444,-0.16347 -3.4e-5,-0.843408 c -4.8e-5,-1.171862 -0.252575,-1.971612 -0.793286,-2.512323 -1.28566,-1.28566 -2.812109,0.139421 -2.717699,2.537224 l 0.03232,0.820899 -0.6512701,0.153471 c -0.8858326,0.208746 -2.3414298,0.813591 -3.8773345,1.611153 -0.7035387,0.365332 -1.2976486,0.66424 -1.3202441,0.66424 -0.022596,0 0.09592,-0.239449 0.2633699,-0.53211 z"
       id="path110"
       transform="translate(0,276)" />
    <path
       style="fill:none;stroke-width:0.0925409"
       d="M 10.307726,23.189081 C 5.531033,22.280557 1.9239817,18.761638 0.96977998,14.07929 0.73704003,12.937216 0.7185945,11.102031 0.92872183,9.9943301 1.6190216,6.3553649 3.8232812,3.4052451 7.0760366,1.7669342 9.1597934,0.71741123 11.252829,0.36384837 13.692713,0.64922261 c 2.322938,0.27169608 4.870842,1.57404549 6.59417,3.37057869 2.02959,2.115805 3.050183,4.4586516 3.229602,7.4137937 0.189037,3.113555 -1.241058,6.607984 -3.599321,8.794919 -1.532257,1.420939 -3.504712,2.45213 -5.484124,2.867077 -1.024908,0.214853 -3.225076,0.264714 -4.125314,0.09349 z M 8.5601203,15.799672 C 9.0455327,15.61948 9.7014164,15.400118 10.01764,15.3122 l 0.574952,-0.159851 v -0.986293 c 0,-1.24189 0.152041,-1.722456 0.736932,-2.32927 0.380291,-0.394547 0.478091,-0.44827 0.816031,-0.44827 0.956721,0 1.685969,1.341352 1.685969,3.101109 v 0.685934 l 0.393299,0.09988 c 0.973949,0.247338 2.795305,1.022207 4.649502,1.978064 0.559499,0.288427 1.031551,0.481571 1.049005,0.429209 0.05079,-0.152379 -1.008485,-2.018562 -1.395042,-2.457715 -0.19392,-0.220303 -0.566049,-0.557252 -0.826956,-0.748775 -0.495895,-0.364021 -0.484212,-0.52435 0.01924,-0.264006 0.160873,0.08319 0.314905,0.128846 0.342293,0.101458 0.02739,-0.02739 -0.248767,-0.623878 -0.61368,-1.325531 -1.411022,-2.713106 -3.79308,-7.5453791 -4.437961,-9.0029013 -0.371575,-0.8398088 -0.733496,-1.586772 -0.804271,-1.6599181 -0.111072,-0.114795 -0.147241,-0.089469 -0.264326,0.1850818 -0.07461,0.1749411 -0.511894,1.1925865 -0.971752,2.2614342 l -0.836106,1.9433594 0.52967,0.4835943 c 0.291317,0.265977 0.499062,0.4846049 0.461653,0.4858398 -0.03741,0.00124 -0.271052,-0.1226847 -0.51921,-0.2753772 -0.248157,-0.1526925 -0.492439,-0.2776228 -0.542849,-0.2776228 -0.05041,0 -0.6446744,1.0514962 -1.3205884,2.3366583 -0.6759141,1.2851616 -1.9314207,3.6295466 -2.7900147,5.2097426 -0.8585941,1.580197 -1.5610801,2.923296 -1.5610801,2.984664 0,0.06137 0.7391706,-0.258991 1.6426014,-0.711912 0.9034308,-0.45292 2.0397568,-0.970922 2.5251691,-1.151114 z"
       id="path112"
       transform="translate(0,276)" />
    <path
       style="fill:none;stroke-width:0.0925409"
       d="m 4.8653594,17.102918 c 0.060147,-0.11452 0.5545863,-1.020264 1.0987545,-2.012766 0.5441683,-0.992501 1.4808306,-2.741524 2.0814719,-3.886718 1.5323803,-2.9216655 2.0114032,-3.7941781 2.0830632,-3.7941781 0.0342,0 0.383587,0.1831575 0.776409,0.4070167 1.279819,0.7293363 1.733527,0.8099109 0.975964,0.1733228 -0.22511,-0.1891626 -0.64863,-0.5741081 -0.941155,-0.8554346 L 10.408004,6.622658 11.258075,4.6088344 c 0.467539,-1.1076031 0.881007,-1.9821148 0.918818,-1.9433594 0.03781,0.038755 0.428188,0.8825109 0.867505,1.8750123 0.439317,0.9925014 1.651206,3.4862609 2.693087,5.5416877 1.04188,2.055427 1.875808,3.75566 1.853172,3.778296 -0.02264,0.02264 -0.338819,-0.06622 -0.702628,-0.197449 -1.226501,-0.442424 -1.205685,-0.306267 0.08309,0.543512 1.086738,0.716561 1.61046,1.273866 2.123118,2.259261 0.210254,0.404134 0.38228,0.756717 0.38228,0.783518 0,0.0268 -0.676705,-0.277084 -1.50379,-0.675297 -1.545283,-0.744002 -3.00658,-1.328144 -3.596412,-1.437637 l -0.334345,-0.06207 -0.06136,-0.940625 c -0.07608,-1.166184 -0.2637,-1.79666 -0.679094,-2.281954 -0.390662,-0.456401 -0.740533,-0.648296 -1.181999,-0.648296 -1.041046,0 -1.712007,1.146817 -1.712007,2.926188 0,0.620571 -0.03352,0.882913 -0.115676,0.905247 -1.0939772,0.297427 -2.5359054,0.856556 -3.8401723,1.489086 -0.8927343,0.432949 -1.6394673,0.78718 -1.6594067,0.78718 -0.019939,0 0.012958,-0.0937 0.073104,-0.208217 z"
       id="path114"
       transform="translate(0,276)" />
    <path
       style="fill:none;stroke-width:0.0925409"
       d="m 4.8653594,17.102918 c 0.060147,-0.11452 0.5545863,-1.020264 1.0987545,-2.012766 0.5441683,-0.992501 1.4808306,-2.741524 2.0814719,-3.886718 1.5323803,-2.9216655 2.0114032,-3.7941781 2.0830632,-3.7941781 0.0342,0 0.383587,0.1831575 0.776409,0.4070167 1.279819,0.7293363 1.733527,0.8099109 0.975964,0.1733228 -0.22511,-0.1891626 -0.64863,-0.5741081 -0.941155,-0.8554346 L 10.408004,6.622658 11.258075,4.6088344 c 0.467539,-1.1076031 0.881007,-1.9821148 0.918818,-1.9433594 0.03781,0.038755 0.428188,0.8825109 0.867505,1.8750123 0.439317,0.9925014 1.651206,3.4862609 2.693087,5.5416877 1.04188,2.055427 1.875808,3.75566 1.853172,3.778296 -0.02264,0.02264 -0.338819,-0.06622 -0.702628,-0.197449 -1.226501,-0.442424 -1.205685,-0.306267 0.08309,0.543512 1.086738,0.716561 1.61046,1.273866 2.123118,2.259261 0.210254,0.404134 0.38228,0.756717 0.38228,0.783518 0,0.0268 -0.676705,-0.277084 -1.50379,-0.675297 -1.545283,-0.744002 -3.00658,-1.328144 -3.596412,-1.437637 l -0.334345,-0.06207 -0.06136,-0.940625 c -0.07608,-1.166184 -0.2637,-1.79666 -0.679094,-2.281954 -0.390662,-0.456401 -0.740533,-0.648296 -1.181999,-0.648296 -1.041046,0 -1.712007,1.146817 -1.712007,2.926188 0,0.620571 -0.03352,0.882913 -0.115676,0.905247 -1.0939772,0.297427 -2.5359054,0.856556 -3.8401723,1.489086 -0.8927343,0.432949 -1.6394673,0.78718 -1.6594067,0.78718 -0.019939,0 0.012958,-0.0937 0.073104,-0.208217 z"
       id="path116"
       transform="translate(0,276)" />
    <path
       style="fill:none;stroke-width:0.0925409"
       d="m 4.8653594,17.102918 c 0.060147,-0.11452 0.5545863,-1.020264 1.0987545,-2.012766 0.5441683,-0.992501 1.4808306,-2.741524 2.0814719,-3.886718 1.5323803,-2.9216655 2.0114032,-3.7941781 2.0830632,-3.7941781 0.0342,0 0.383587,0.1831575 0.776409,0.4070167 1.279819,0.7293363 1.733527,0.8099109 0.975964,0.1733228 -0.22511,-0.1891626 -0.64863,-0.5741081 -0.941155,-0.8554346 L 10.408004,6.622658 11.258075,4.6088344 c 0.467539,-1.1076031 0.881007,-1.9821148 0.918818,-1.9433594 0.03781,0.038755 0.428188,0.8825109 0.867505,1.8750123 0.439317,0.9925014 1.651206,3.4862609 2.693087,5.5416877 1.04188,2.055427 1.875808,3.75566 1.853172,3.778296 -0.02264,0.02264 -0.338819,-0.06622 -0.702628,-0.197449 -1.226501,-0.442424 -1.205685,-0.306267 0.08309,0.543512 1.086738,0.716561 1.61046,1.273866 2.123118,2.259261 0.210254,0.404134 0.38228,0.756717 0.38228,0.783518 0,0.0268 -0.676705,-0.277084 -1.50379,-0.675297 -1.545283,-0.744002 -3.00658,-1.328144 -3.596412,-1.437637 l -0.334345,-0.06207 -0.06136,-0.940625 c -0.07608,-1.166184 -0.2637,-1.79666 -0.679094,-2.281954 -0.390662,-0.456401 -0.740533,-0.648296 -1.181999,-0.648296 -1.041046,0 -1.712007,1.146817 -1.712007,2.926188 0,0.620571 -0.03352,0.882913 -0.115676,0.905247 -1.0939772,0.297427 -2.5359054,0.856556 -3.8401723,1.489086 -0.8927343,0.432949 -1.6394673,0.78718 -1.6594067,0.78718 -0.019939,0 0.012958,-0.0937 0.073104,-0.208217 z"
       id="path118"
       transform="translate(0,276)" />
    <path
       style="fill:none;stroke-width:0.0925409"
       d="m 4.8653594,17.102918 c 0.060147,-0.11452 0.5545863,-1.020264 1.0987545,-2.012766 0.5441683,-0.992501 1.4808306,-2.741524 2.0814719,-3.886718 1.5323803,-2.9216655 2.0114032,-3.7941781 2.0830632,-3.7941781 0.0342,0 0.383587,0.1831575 0.776409,0.4070167 1.279819,0.7293363 1.733527,0.8099109 0.975964,0.1733228 -0.22511,-0.1891626 -0.64863,-0.5741081 -0.941155,-0.8554346 L 10.408004,6.622658 11.258075,4.6088344 c 0.467539,-1.1076031 0.881007,-1.9821148 0.918818,-1.9433594 0.03781,0.038755 0.428188,0.8825109 0.867505,1.8750123 0.439317,0.9925014 1.651206,3.4862609 2.693087,5.5416877 1.04188,2.055427 1.875808,3.75566 1.853172,3.778296 -0.02264,0.02264 -0.338819,-0.06622 -0.702628,-0.197449 -1.226501,-0.442424 -1.205685,-0.306267 0.08309,0.543512 1.086738,0.716561 1.61046,1.273866 2.123118,2.259261 0.210254,0.404134 0.38228,0.756717 0.38228,0.783518 0,0.0268 -0.676705,-0.277084 -1.50379,-0.675297 -1.545283,-0.744002 -3.00658,-1.328144 -3.596412,-1.437637 l -0.334345,-0.06207 -0.06136,-0.940625 c -0.07608,-1.166184 -0.2637,-1.79666 -0.679094,-2.281954 -0.390662,-0.456401 -0.740533,-0.648296 -1.181999,-0.648296 -1.041046,0 -1.712007,1.146817 -1.712007,2.926188 0,0.620571 -0.03352,0.882913 -0.115676,0.905247 -1.0939772,0.297427 -2.5359054,0.856556 -3.8401723,1.489086 -0.8927343,0.432949 -1.6394673,0.78718 -1.6594067,0.78718 -0.019939,0 0.012958,-0.0937 0.073104,-0.208217 z"
       id="path120"
       transform="translate(0,276)" />
    <path
       style="fill:none;stroke-width:0.0925409"
       d="m 4.5629721,17.494647 c 0,-0.02949 0.6732412,-1.289206 1.4960916,-2.799363 0.8228503,-1.510157 2.0285722,-3.766003 2.679382,-5.0129917 0.6508097,-1.2469889 1.21646,-2.3191935 1.2570008,-2.382677 0.05421,-0.084887 0.2525155,-0.00254 0.7495615,0.3112519 0.371719,0.2346719 0.704866,0.3973836 0.740328,0.3615814 C 11.520798,7.9366464 11.26535,7.6375888 10.917674,7.307876 10.466695,6.8801972 10.3018,6.6637906 10.342284,6.5527438 c 0.235765,-0.6466874 1.760069,-4.1811844 1.803197,-4.1811844 0.02998,0 0.321725,0.6142404 0.648331,1.3649786 0.854975,1.9652523 2.377155,5.0880403 3.842014,7.881987 0.699406,1.333987 1.247906,2.449171 1.218889,2.478188 -0.02902,0.02902 -0.259552,-0.0362 -0.5123,-0.14493 -0.520158,-0.223767 -0.564041,-0.232312 -0.564041,-0.109825 0,0.04833 0.268273,0.279301 0.596163,0.513279 0.84393,0.602215 1.416773,1.270488 1.935028,2.257383 0.246962,0.470279 0.428408,0.875668 0.403214,0.900862 -0.02519,0.02519 -0.726975,-0.295278 -1.559513,-0.712159 -1.570428,-0.78637 -3.304034,-1.506353 -3.88508,-1.613511 l -0.335477,-0.06187 -0.04467,-0.986683 c -0.06274,-1.385965 -0.452627,-2.277939 -1.172558,-2.682563 -0.567433,-0.318915 -0.990458,-0.228078 -1.502519,0.322639 -0.525218,0.564867 -0.66567,1.00482 -0.709038,2.22099 l -0.04013,1.125371 -0.325359,0.06104 c -0.7394384,0.138719 -2.570202,0.86846 -3.9911929,1.590885 -1.574477,0.800458 -1.584274,0.804892 -1.584274,0.717027 z"
       id="path122"
       transform="translate(0,276)" />
    <path
       style="fill:none;stroke-width:0.0925409"
       d="m 4.5629721,17.494647 c 0,-0.02949 0.6732412,-1.289206 1.4960916,-2.799363 0.8228503,-1.510157 2.0285722,-3.766003 2.679382,-5.0129917 0.6508097,-1.2469889 1.21646,-2.3191935 1.2570008,-2.382677 0.05421,-0.084887 0.2525155,-0.00254 0.7495615,0.3112519 0.371719,0.2346719 0.704866,0.3973836 0.740328,0.3615814 C 11.520798,7.9366464 11.26535,7.6375888 10.917674,7.307876 10.466695,6.8801972 10.3018,6.6637906 10.342284,6.5527438 c 0.235765,-0.6466874 1.760069,-4.1811844 1.803197,-4.1811844 0.02998,0 0.321725,0.6142404 0.648331,1.3649786 0.854975,1.9652523 2.377155,5.0880403 3.842014,7.881987 0.699406,1.333987 1.247906,2.449171 1.218889,2.478188 -0.02902,0.02902 -0.259552,-0.0362 -0.5123,-0.14493 -0.520158,-0.223767 -0.564041,-0.232312 -0.564041,-0.109825 0,0.04833 0.268273,0.279301 0.596163,0.513279 0.84393,0.602215 1.416773,1.270488 1.935028,2.257383 0.246962,0.470279 0.428408,0.875668 0.403214,0.900862 -0.02519,0.02519 -0.726975,-0.295278 -1.559513,-0.712159 -1.570428,-0.78637 -3.304034,-1.506353 -3.88508,-1.613511 l -0.335477,-0.06187 -0.04467,-0.986683 c -0.06274,-1.385965 -0.452627,-2.277939 -1.172558,-2.682563 -0.567433,-0.318915 -0.990458,-0.228078 -1.502519,0.322639 -0.525218,0.564867 -0.66567,1.00482 -0.709038,2.22099 l -0.04013,1.125371 -0.325359,0.06104 c -0.7394384,0.138719 -2.570202,0.86846 -3.9911929,1.590885 -1.574477,0.800458 -1.584274,0.804892 -1.584274,0.717027 z"
       id="path124"
       transform="translate(0,276)" />
    <path
       style="fill:none;stroke-width:0.0925409"
       d="m 4.5629721,17.494647 c 0,-0.02949 0.6732412,-1.289206 1.4960916,-2.799363 0.8228503,-1.510157 2.0285722,-3.766003 2.679382,-5.0129917 0.6508097,-1.2469889 1.21646,-2.3191935 1.2570008,-2.382677 0.05421,-0.084887 0.2525155,-0.00254 0.7495615,0.3112519 0.371719,0.2346719 0.704866,0.3973836 0.740328,0.3615814 C 11.520798,7.9366464 11.26535,7.6375888 10.917674,7.307876 10.466695,6.8801972 10.3018,6.6637906 10.342284,6.5527438 c 0.235765,-0.6466874 1.760069,-4.1811844 1.803197,-4.1811844 0.02998,0 0.321725,0.6142404 0.648331,1.3649786 0.854975,1.9652523 2.377155,5.0880403 3.842014,7.881987 0.699406,1.333987 1.247906,2.449171 1.218889,2.478188 -0.02902,0.02902 -0.259552,-0.0362 -0.5123,-0.14493 -0.520158,-0.223767 -0.564041,-0.232312 -0.564041,-0.109825 0,0.04833 0.268273,0.279301 0.596163,0.513279 0.84393,0.602215 1.416773,1.270488 1.935028,2.257383 0.246962,0.470279 0.428408,0.875668 0.403214,0.900862 -0.02519,0.02519 -0.726975,-0.295278 -1.559513,-0.712159 -1.570428,-0.78637 -3.304034,-1.506353 -3.88508,-1.613511 l -0.335477,-0.06187 -0.04467,-0.986683 c -0.06274,-1.385965 -0.452627,-2.277939 -1.172558,-2.682563 -0.567433,-0.318915 -0.990458,-0.228078 -1.502519,0.322639 -0.525218,0.564867 -0.66567,1.00482 -0.709038,2.22099 l -0.04013,1.125371 -0.325359,0.06104 c -0.7394384,0.138719 -2.570202,0.86846 -3.9911929,1.590885 -1.574477,0.800458 -1.584274,0.804892 -1.584274,0.717027 z"
       id="path126"
       transform="translate(0,276)" />
  </g>
</svg>
