<?xml version="1.0" encoding="UTF-8" standalone="no"?>
<svg
   xmlns:osb="http://www.openswatchbook.org/uri/2009/osb"
   xmlns:dc="http://purl.org/dc/elements/1.1/"
   xmlns:cc="http://creativecommons.org/ns#"
   xmlns:rdf="http://www.w3.org/1999/02/22-rdf-syntax-ns#"
   xmlns:svg="http://www.w3.org/2000/svg"
   xmlns="http://www.w3.org/2000/svg"
   xmlns:sodipodi="http://sodipodi.sourceforge.net/DTD/sodipodi-0.dtd"
   xmlns:inkscape="http://www.inkscape.org/namespaces/inkscape"
   inkscape:export-ydpi="90.000000"
   inkscape:export-xdpi="90.000000"
   width="24"
   height="24"
   id="svg11300"
   sodipodi:version="0.32"
   inkscape:version="1.0.2 (e86c870879, 2021-01-15, custom)"
   sodipodi:docname="activities_arch_alt.svg"
   inkscape:output_extension="org.inkscape.output.svg.inkscape"
   version="1.0"
   style="display:inline;enable-background:new">
  <sodipodi:namedview
     stroke="#ef2929"
     fill="#f57900"
     id="base"
     pagecolor="#bebebe"
     bordercolor="#525252"
     borderopacity="1"
     inkscape:pageopacity="1"
     inkscape:pageshadow="2"
     inkscape:zoom="10.80603"
     inkscape:cx="13.863335"
     inkscape:cy="9.9136446"
     inkscape:current-layer="layer1"
     showgrid="true"
     inkscape:grid-bbox="true"
     inkscape:document-units="px"
     inkscape:showpageshadow="true"
     inkscape:window-width="1920"
     inkscape:window-height="1020"
     inkscape:window-x="0"
     inkscape:window-y="0"
     width="400px"
     height="300px"
     inkscape:snap-nodes="true"
     inkscape:snap-bbox="true"
     gridtolerance="10000"
     inkscape:object-nodes="true"
     inkscape:snap-grids="true"
     showguides="false"
     inkscape:guide-bbox="true"
     inkscape:window-maximized="1"
     inkscape:bbox-nodes="true"
     inkscape:bbox-paths="false"
     inkscape:snap-bbox-edge-midpoints="false"
     inkscape:snap-bbox-midpoints="false"
     objecttolerance="10000"
     guidetolerance="10000"
     borderlayer="true"
     showborder="true"
     guidecolor="#ff0b00"
     guideopacity="1"
     guidehicolor="#001aff"
     guidehiopacity="0.49803922"
     inkscape:document-rotation="0">
    <inkscape:grid
       type="xygrid"
       id="grid3123"
       empspacing="4"
       visible="true"
       enabled="true"
       snapvisiblegridlinesonly="true" />
    <sodipodi:guide
       position="12,12"
       orientation="1,0"
       id="guide4135"
       inkscape:locked="false" />
  </sodipodi:namedview>
  <defs
     id="defs3">
    <linearGradient
       id="selected_bg_color"
       osb:paint="solid">
      <stop
         style="stop-color:#5294e2;stop-opacity:1;"
         offset="0"
         id="stop4140" />
    </linearGradient>
  </defs>
  <metadata
     id="metadata4">
    <rdf:RDF>
      <cc:Work
         rdf:about="">
        <dc:format>image/svg+xml</dc:format>
        <dc:type
           rdf:resource="http://purl.org/dc/dcmitype/StillImage" />
        <dc:creator>
          <cc:Agent>
            <dc:title />
          </cc:Agent>
        </dc:creator>
        <dc:source />
        <cc:license
           rdf:resource="" />
        <dc:title></dc:title>
        <dc:subject>
          <rdf:Bag />
        </dc:subject>
        <dc:date />
        <dc:rights>
          <cc:Agent>
            <dc:title />
          </cc:Agent>
        </dc:rights>
        <dc:publisher>
          <cc:Agent>
            <dc:title />
          </cc:Agent>
        </dc:publisher>
        <dc:identifier />
        <dc:relation />
        <dc:language />
        <dc:coverage />
        <dc:description />
        <dc:contributor>
          <cc:Agent>
            <dc:title />
          </cc:Agent>
        </dc:contributor>
      </cc:Work>
      <cc:Work
         rdf:about="">
        <dc:format>image/svg+xml</dc:format>
        <dc:type
           rdf:resource="http://purl.org/dc/dcmitype/StillImage" />
      </cc:Work>
    </rdf:RDF>
  </metadata>
  <g
     style="display:inline"
     inkscape:groupmode="layer"
     inkscape:label="Base"
     id="layer1"
     transform="translate(0,-276)">
    <g
       id="g3824"
       transform="matrix(0.04492188,0,0,0.04492188,7.7540381,284.93452)">
      <path
         d="m -733.62329,72.267944 c 0,203.804876 -165.21649,369.021366 -369.02141,369.021366 -203.8048,0 -369.0213,-165.21649 -369.0213,-369.021366 0,-203.804874 165.2165,-369.021364 369.0213,-369.021364 203.80492,0 369.02141,165.21649 369.02141,369.021364 z"
         id="path4878"
         style="fill:none"
         transform="matrix(0.69372682,0,0,0.69372682,872.81612,67.513546)" />
      <path
         d="M 107.84949,-98.602257 C 92.493787,-60.954304 83.231987,-36.328024 66.135387,0.20085614 76.617787,11.312106 89.484387,24.251686 110.3795,38.865776 87.915087,29.621786 72.591587,20.341076 61.140187,10.710446 39.259887,56.367046 4.9797874,121.40283 -64.585822,246.39777 c 54.6762094,-31.56545 97.060109,-51.0259 136.559909,-58.45149 -1.696,-7.29506 -2.6605,-15.1861 -2.595,-23.41953 l 0.065,-1.7516 c 0.8677,-35.02952 19.09,-61.96722 40.676113,-60.13821 21.5861,1.82902 38.3647,31.72582 37.4971,66.75537 -0.1631,6.59145 -0.9065,12.93234 -2.2057,18.81346 39.0709,7.64297 81.0017,27.0536 134.93811,58.192 C 269.7144,226.81765 260.2216,209.1676 251.1563,192.3577 236.8771,181.29028 221.983,166.88599 191.602,151.29245 c 20.8822,5.42606 35.8334,11.68629 47.4876,18.68371 C 146.9204,-1.6272139 139.4566,-24.429744 107.84949,-98.602257 Z"
         id="path2518"
         style="fill:none" />
    </g>
    <path
       style="fill:none;stroke-width:0.0925409"
       d="m 5.2419125,295.40161 c 1.1814552,-2.07188 3.4713148,-6.32446 4.4400762,-8.24582 l 0.8274453,-1.64108 0.384631,0.2639 c 0.46565,0.3195 1.730012,0.9634 1.784579,0.90883 0.02153,-0.0215 -0.159727,-0.20006 -0.402783,-0.39675 -0.243056,-0.19669 -0.677179,-0.57971 -0.964717,-0.85115 l -0.522798,-0.49352 0.531819,-1.22097 c 0.292501,-0.67153 0.69132,-1.62791 0.886265,-2.1253 0.194945,-0.49739 0.38393,-0.87218 0.419967,-0.83287 0.03604,0.0393 0.365595,0.77941 0.732352,1.64467 0.774294,1.82673 2.313872,4.97116 3.844585,7.85218 0.5909,1.11216 1.061216,2.03386 1.045147,2.04823 -0.01607,0.0144 -0.32072,-0.0896 -0.677002,-0.23112 -0.356283,-0.14148 -0.793539,-0.28485 -0.97168,-0.31859 l -0.323893,-0.0614 0.323893,0.20374 c 2.075772,1.30573 2.295216,1.50891 2.958551,2.73922 0.306903,0.56922 0.558004,1.05867 0.558004,1.08766 0,0.029 -0.593419,-0.25671 -1.318708,-0.63492 -1.550731,-0.80862 -2.606656,-1.25388 -3.64489,-1.53694 l -0.752986,-0.2053 9.35e-4,-0.89063 c 0.0018,-1.69005 -0.661335,-2.83114 -1.712097,-2.94621 -0.49376,-0.0541 -0.914673,0.20867 -1.334139,0.83281 -0.368263,0.54794 -0.519486,1.25743 -0.478085,2.24301 l 0.03215,0.76528 -0.508975,0.11164 c -0.8785845,0.19271 -2.2138314,0.73289 -3.7416079,1.51369 -0.8108955,0.41442 -1.5131317,0.76895 -1.560525,0.78783 -0.047393,0.0189 0.017627,-0.14768 0.1444884,-0.37016 z"
       id="path84" />
    <path
       style="fill:none;stroke-width:0.0925409"
       d="m 5.2419125,295.40161 c 1.1814552,-2.07188 3.4713148,-6.32446 4.4400762,-8.24582 l 0.8274453,-1.64108 0.384631,0.2639 c 0.46565,0.3195 1.730012,0.9634 1.784579,0.90883 0.02153,-0.0215 -0.159727,-0.20006 -0.402783,-0.39675 -0.243056,-0.19669 -0.677179,-0.57971 -0.964717,-0.85115 l -0.522798,-0.49352 0.531819,-1.22097 c 0.292501,-0.67153 0.69132,-1.62791 0.886265,-2.1253 0.194945,-0.49739 0.38393,-0.87218 0.419967,-0.83287 0.03604,0.0393 0.365595,0.77941 0.732352,1.64467 0.774294,1.82673 2.313872,4.97116 3.844585,7.85218 0.5909,1.11216 1.061216,2.03386 1.045147,2.04823 -0.01607,0.0144 -0.32072,-0.0896 -0.677002,-0.23112 -0.356283,-0.14148 -0.793539,-0.28485 -0.97168,-0.31859 l -0.323893,-0.0614 0.323893,0.20374 c 2.075772,1.30573 2.295216,1.50891 2.958551,2.73922 0.306903,0.56922 0.558004,1.05867 0.558004,1.08766 0,0.029 -0.593419,-0.25671 -1.318708,-0.63492 -1.550731,-0.80862 -2.606656,-1.25388 -3.64489,-1.53694 l -0.752986,-0.2053 9.35e-4,-0.89063 c 0.0018,-1.69005 -0.661335,-2.83114 -1.712097,-2.94621 -0.49376,-0.0541 -0.914673,0.20867 -1.334139,0.83281 -0.368263,0.54794 -0.519486,1.25743 -0.478085,2.24301 l 0.03215,0.76528 -0.508975,0.11164 c -0.8785845,0.19271 -2.2138314,0.73289 -3.7416079,1.51369 -0.8108955,0.41442 -1.5131317,0.76895 -1.560525,0.78783 -0.047393,0.0189 0.017627,-0.14768 0.1444884,-0.37016 z"
       id="path86" />
    <path
       style="fill:none;stroke-width:0.0925409"
       d="m 5.2419125,295.40161 c 1.1814552,-2.07188 3.4713148,-6.32446 4.4400762,-8.24582 l 0.8274453,-1.64108 0.384631,0.2639 c 0.46565,0.3195 1.730012,0.9634 1.784579,0.90883 0.02153,-0.0215 -0.159727,-0.20006 -0.402783,-0.39675 -0.243056,-0.19669 -0.677179,-0.57971 -0.964717,-0.85115 l -0.522798,-0.49352 0.531819,-1.22097 c 0.292501,-0.67153 0.69132,-1.62791 0.886265,-2.1253 0.194945,-0.49739 0.38393,-0.87218 0.419967,-0.83287 0.03604,0.0393 0.365595,0.77941 0.732352,1.64467 0.774294,1.82673 2.313872,4.97116 3.844585,7.85218 0.5909,1.11216 1.061216,2.03386 1.045147,2.04823 -0.01607,0.0144 -0.32072,-0.0896 -0.677002,-0.23112 -0.356283,-0.14148 -0.793539,-0.28485 -0.97168,-0.31859 l -0.323893,-0.0614 0.323893,0.20374 c 2.075772,1.30573 2.295216,1.50891 2.958551,2.73922 0.306903,0.56922 0.558004,1.05867 0.558004,1.08766 0,0.029 -0.593419,-0.25671 -1.318708,-0.63492 -1.550731,-0.80862 -2.606656,-1.25388 -3.64489,-1.53694 l -0.752986,-0.2053 9.35e-4,-0.89063 c 0.0018,-1.69005 -0.661335,-2.83114 -1.712097,-2.94621 -0.49376,-0.0541 -0.914673,0.20867 -1.334139,0.83281 -0.368263,0.54794 -0.519486,1.25743 -0.478085,2.24301 l 0.03215,0.76528 -0.508975,0.11164 c -0.8785845,0.19271 -2.2138314,0.73289 -3.7416079,1.51369 -0.8108955,0.41442 -1.5131317,0.76895 -1.560525,0.78783 -0.047393,0.0189 0.017627,-0.14768 0.1444884,-0.37016 z"
       id="path88" />
    <path
       style="fill:none;stroke-width:0.0925409"
       d="m 5.2419125,295.40161 c 1.1814552,-2.07188 3.4713148,-6.32446 4.4400762,-8.24582 l 0.8274453,-1.64108 0.384631,0.2639 c 0.46565,0.3195 1.730012,0.9634 1.784579,0.90883 0.02153,-0.0215 -0.159727,-0.20006 -0.402783,-0.39675 -0.243056,-0.19669 -0.677179,-0.57971 -0.964717,-0.85115 l -0.522798,-0.49352 0.531819,-1.22097 c 0.292501,-0.67153 0.69132,-1.62791 0.886265,-2.1253 0.194945,-0.49739 0.38393,-0.87218 0.419967,-0.83287 0.03604,0.0393 0.365595,0.77941 0.732352,1.64467 0.774294,1.82673 2.313872,4.97116 3.844585,7.85218 0.5909,1.11216 1.061216,2.03386 1.045147,2.04823 -0.01607,0.0144 -0.32072,-0.0896 -0.677002,-0.23112 -0.356283,-0.14148 -0.793539,-0.28485 -0.97168,-0.31859 l -0.323893,-0.0614 0.323893,0.20374 c 2.075772,1.30573 2.295216,1.50891 2.958551,2.73922 0.306903,0.56922 0.558004,1.05867 0.558004,1.08766 0,0.029 -0.593419,-0.25671 -1.318708,-0.63492 -1.550731,-0.80862 -2.606656,-1.25388 -3.64489,-1.53694 l -0.752986,-0.2053 9.35e-4,-0.89063 c 0.0018,-1.69005 -0.661335,-2.83114 -1.712097,-2.94621 -0.49376,-0.0541 -0.914673,0.20867 -1.334139,0.83281 -0.368263,0.54794 -0.519486,1.25743 -0.478085,2.24301 l 0.03215,0.76528 -0.508975,0.11164 c -0.8785845,0.19271 -2.2138314,0.73289 -3.7416079,1.51369 -0.8108955,0.41442 -1.5131317,0.76895 -1.560525,0.78783 -0.047393,0.0189 0.017627,-0.14768 0.1444884,-0.37016 z"
       id="path90" />
    <path
       style="fill:none;stroke-width:0.0925409"
       d="m 5.2419125,295.40161 c 1.1814552,-2.07188 3.4713148,-6.32446 4.4400762,-8.24582 l 0.8274453,-1.64108 0.384631,0.2639 c 0.46565,0.3195 1.730012,0.9634 1.784579,0.90883 0.02153,-0.0215 -0.159727,-0.20006 -0.402783,-0.39675 -0.243056,-0.19669 -0.677179,-0.57971 -0.964717,-0.85115 l -0.522798,-0.49352 0.531819,-1.22097 c 0.292501,-0.67153 0.69132,-1.62791 0.886265,-2.1253 0.194945,-0.49739 0.38393,-0.87218 0.419967,-0.83287 0.03604,0.0393 0.365595,0.77941 0.732352,1.64467 0.774294,1.82673 2.313872,4.97116 3.844585,7.85218 0.5909,1.11216 1.061216,2.03386 1.045147,2.04823 -0.01607,0.0144 -0.32072,-0.0896 -0.677002,-0.23112 -0.356283,-0.14148 -0.793539,-0.28485 -0.97168,-0.31859 l -0.323893,-0.0614 0.323893,0.20374 c 2.075772,1.30573 2.295216,1.50891 2.958551,2.73922 0.306903,0.56922 0.558004,1.05867 0.558004,1.08766 0,0.029 -0.593419,-0.25671 -1.318708,-0.63492 -1.550731,-0.80862 -2.606656,-1.25388 -3.64489,-1.53694 l -0.752986,-0.2053 9.35e-4,-0.89063 c 0.0018,-1.69005 -0.661335,-2.83114 -1.712097,-2.94621 -0.49376,-0.0541 -0.914673,0.20867 -1.334139,0.83281 -0.368263,0.54794 -0.519486,1.25743 -0.478085,2.24301 l 0.03215,0.76528 -0.508975,0.11164 c -0.8785845,0.19271 -2.2138314,0.73289 -3.7416079,1.51369 -0.8108955,0.41442 -1.5131317,0.76895 -1.560525,0.78783 -0.047393,0.0189 0.017627,-0.14768 0.1444884,-0.37016 z"
       id="path92" />
    <path
       style="fill:none;stroke-width:0.0925409"
       d="m 5.2419125,295.40161 c 1.1814552,-2.07188 3.4713148,-6.32446 4.4400762,-8.24582 l 0.8274453,-1.64108 0.384631,0.2639 c 0.46565,0.3195 1.730012,0.9634 1.784579,0.90883 0.02153,-0.0215 -0.159727,-0.20006 -0.402783,-0.39675 -0.243056,-0.19669 -0.677179,-0.57971 -0.964717,-0.85115 l -0.522798,-0.49352 0.531819,-1.22097 c 0.292501,-0.67153 0.69132,-1.62791 0.886265,-2.1253 0.194945,-0.49739 0.38393,-0.87218 0.419967,-0.83287 0.03604,0.0393 0.365595,0.77941 0.732352,1.64467 0.774294,1.82673 2.313872,4.97116 3.844585,7.85218 0.5909,1.11216 1.061216,2.03386 1.045147,2.04823 -0.01607,0.0144 -0.32072,-0.0896 -0.677002,-0.23112 -0.356283,-0.14148 -0.793539,-0.28485 -0.97168,-0.31859 l -0.323893,-0.0614 0.323893,0.20374 c 2.075772,1.30573 2.295216,1.50891 2.958551,2.73922 0.306903,0.56922 0.558004,1.05867 0.558004,1.08766 0,0.029 -0.593419,-0.25671 -1.318708,-0.63492 -1.550731,-0.80862 -2.606656,-1.25388 -3.64489,-1.53694 l -0.752986,-0.2053 9.35e-4,-0.89063 c 0.0018,-1.69005 -0.661335,-2.83114 -1.712097,-2.94621 -0.49376,-0.0541 -0.914673,0.20867 -1.334139,0.83281 -0.368263,0.54794 -0.519486,1.25743 -0.478085,2.24301 l 0.03215,0.76528 -0.508975,0.11164 c -0.8785845,0.19271 -2.2138314,0.73289 -3.7416079,1.51369 -0.8108955,0.41442 -1.5131317,0.76895 -1.560525,0.78783 -0.047393,0.0189 0.017627,-0.14768 0.1444884,-0.37016 z"
       id="path94" />
    <path
       style="fill:none;stroke-width:0.0925409"
       d="m 5.2419125,295.40161 c 1.1814552,-2.07188 3.4713148,-6.32446 4.4400762,-8.24582 l 0.8274453,-1.64108 0.384631,0.2639 c 0.46565,0.3195 1.730012,0.9634 1.784579,0.90883 0.02153,-0.0215 -0.159727,-0.20006 -0.402783,-0.39675 -0.243056,-0.19669 -0.677179,-0.57971 -0.964717,-0.85115 l -0.522798,-0.49352 0.531819,-1.22097 c 0.292501,-0.67153 0.69132,-1.62791 0.886265,-2.1253 0.194945,-0.49739 0.38393,-0.87218 0.419967,-0.83287 0.03604,0.0393 0.365595,0.77941 0.732352,1.64467 0.774294,1.82673 2.313872,4.97116 3.844585,7.85218 0.5909,1.11216 1.061216,2.03386 1.045147,2.04823 -0.01607,0.0144 -0.32072,-0.0896 -0.677002,-0.23112 -0.356283,-0.14148 -0.793539,-0.28485 -0.97168,-0.31859 l -0.323893,-0.0614 0.323893,0.20374 c 2.075772,1.30573 2.295216,1.50891 2.958551,2.73922 0.306903,0.56922 0.558004,1.05867 0.558004,1.08766 0,0.029 -0.593419,-0.25671 -1.318708,-0.63492 -1.550731,-0.80862 -2.606656,-1.25388 -3.64489,-1.53694 l -0.752986,-0.2053 9.35e-4,-0.89063 c 0.0018,-1.69005 -0.661335,-2.83114 -1.712097,-2.94621 -0.49376,-0.0541 -0.914673,0.20867 -1.334139,0.83281 -0.368263,0.54794 -0.519486,1.25743 -0.478085,2.24301 l 0.03215,0.76528 -0.508975,0.11164 c -0.8785845,0.19271 -2.2138314,0.73289 -3.7416079,1.51369 -0.8108955,0.41442 -1.5131317,0.76895 -1.560525,0.78783 -0.047393,0.0189 0.017627,-0.14768 0.1444884,-0.37016 z"
       id="path96" />
    <path
       style="fill:none;stroke-width:0.0925409"
       d="m 5.2419125,295.40161 c 1.1814552,-2.07188 3.4713148,-6.32446 4.4400762,-8.24582 l 0.8274453,-1.64108 0.384631,0.2639 c 0.46565,0.3195 1.730012,0.9634 1.784579,0.90883 0.02153,-0.0215 -0.159727,-0.20006 -0.402783,-0.39675 -0.243056,-0.19669 -0.677179,-0.57971 -0.964717,-0.85115 l -0.522798,-0.49352 0.531819,-1.22097 c 0.292501,-0.67153 0.69132,-1.62791 0.886265,-2.1253 0.194945,-0.49739 0.38393,-0.87218 0.419967,-0.83287 0.03604,0.0393 0.365595,0.77941 0.732352,1.64467 0.774294,1.82673 2.313872,4.97116 3.844585,7.85218 0.5909,1.11216 1.061216,2.03386 1.045147,2.04823 -0.01607,0.0144 -0.32072,-0.0896 -0.677002,-0.23112 -0.356283,-0.14148 -0.793539,-0.28485 -0.97168,-0.31859 l -0.323893,-0.0614 0.323893,0.20374 c 2.075772,1.30573 2.295216,1.50891 2.958551,2.73922 0.306903,0.56922 0.558004,1.05867 0.558004,1.08766 0,0.029 -0.593419,-0.25671 -1.318708,-0.63492 -1.55128,-0.80891 -2.60667,-1.25388 -3.646236,-1.53731 l -0.754333,-0.20567 0.0068,-0.84488 c 0.0061,-0.75754 -0.02583,-0.92476 -0.309037,-1.61743 -0.446001,-1.09083 -1.050944,-1.54993 -1.795918,-1.36295 -0.371421,0.0932 -0.85461,0.58349 -1.132223,1.1488 -0.237685,0.48402 -0.258197,0.61139 -0.258197,1.60339 v 1.0776 l -0.508975,0.11187 c -0.8795242,0.19332 -2.2145717,0.73351 -3.7416079,1.51393 -0.8108955,0.41442 -1.5131317,0.76895 -1.560525,0.78783 -0.047393,0.0189 0.017627,-0.14768 0.1444884,-0.37016 z"
       id="path98" />
    <path
       style="fill:none;stroke-width:0.0925409"
       d="m 5.2419125,295.40161 c 1.1814552,-2.07188 3.4713148,-6.32446 4.4400762,-8.24582 l 0.8274453,-1.64108 0.384631,0.2639 c 0.46565,0.3195 1.730012,0.9634 1.784579,0.90883 0.02153,-0.0215 -0.159727,-0.20006 -0.402783,-0.39675 -0.243056,-0.19669 -0.677179,-0.57971 -0.964717,-0.85115 l -0.522798,-0.49352 0.531819,-1.22097 c 0.292501,-0.67153 0.69132,-1.62791 0.886265,-2.1253 0.194945,-0.49739 0.38393,-0.87218 0.419967,-0.83287 0.03604,0.0393 0.365595,0.77941 0.732352,1.64467 0.774294,1.82673 2.313872,4.97116 3.844585,7.85218 0.5909,1.11216 1.061216,2.03386 1.045147,2.04823 -0.01607,0.0144 -0.32072,-0.0896 -0.677002,-0.23112 -0.356283,-0.14148 -0.793539,-0.28485 -0.97168,-0.31859 l -0.323893,-0.0614 0.323893,0.20374 c 2.075772,1.30573 2.295216,1.50891 2.958551,2.73922 0.306903,0.56922 0.558004,1.05867 0.558004,1.08766 0,0.029 -0.593419,-0.25671 -1.318708,-0.63492 -1.550731,-0.80862 -2.606656,-1.25388 -3.64489,-1.53694 l -0.752986,-0.2053 9.35e-4,-0.89063 c 0.0018,-1.69005 -0.661335,-2.83114 -1.712097,-2.94621 -0.49376,-0.0541 -0.914673,0.20867 -1.334139,0.83281 -0.368263,0.54794 -0.519486,1.25743 -0.478085,2.24301 l 0.03215,0.76528 -0.508975,0.11164 c -0.8785845,0.19271 -2.2138314,0.73289 -3.7416079,1.51369 -0.8108955,0.41442 -1.5131317,0.76895 -1.560525,0.78783 -0.047393,0.0189 0.017627,-0.14768 0.1444884,-0.37016 z"
       id="path100" />
    <path
       style="fill:none;stroke-width:0.0925409"
       d="m 11.341041,301.60942 c -4.5777556,-0.57114 -8.3100928,-3.67274 -9.6825835,-8.04631 -1.25140147,-3.9877 -0.1390461,-8.43054 2.8621756,-11.43176 1.6236411,-1.62364 3.7428659,-2.74205 6.0640059,-3.20023 0.91686,-0.18099 3.308173,-0.15621 4.238011,0.0439 2.209982,0.47564 4.057544,1.44639 5.655404,2.97145 2.073137,1.97869 3.269718,4.46943 3.517375,7.32158 0.498706,5.74336 -3.42404,10.98205 -9.107637,12.16293 -1.01621,0.21114 -2.632737,0.29246 -3.546751,0.17842 z m -4.3654981,-6.69655 c 1.0196466,-0.5185 2.3578456,-1.05086 3.2697351,-1.30076 l 0.724861,-0.19864 0.01547,-1.059 c 0.01371,-0.93852 0.04388,-1.11963 0.26526,-1.59203 0.294781,-0.62904 0.735494,-1.06323 1.16004,-1.14288 1.102264,-0.20679 2.066673,1.45742 1.901321,3.28095 -0.04355,0.4803 -0.02861,0.56968 0.09523,0.56968 0.57711,0 2.77005,0.89114 4.672471,1.89874 0.697278,0.3693 1.281258,0.65922 1.297733,0.64427 0.01647,-0.015 -0.246548,-0.5412 -0.584494,-1.16943 -0.657703,-1.22264 -0.939239,-1.54347 -2.027984,-2.31107 -0.725347,-0.51139 -0.649534,-0.57856 0.199595,-0.17686 0.318109,0.15049 0.57838,0.25479 0.57838,0.23178 0,-0.023 -0.569969,-1.11438 -1.2666,-2.42527 -1.556955,-2.9298 -3.230354,-6.35961 -4.017846,-8.23499 -0.325547,-0.77528 -0.618452,-1.41035 -0.650898,-1.41125 -0.03245,-9.1e-4 -0.175308,0.27944 -0.31747,0.623 -0.142162,0.34356 -0.567686,1.35341 -0.945608,2.24412 l -0.687132,1.61946 0.680708,0.62453 c 0.37439,0.34349 0.637112,0.62459 0.583828,0.62465 -0.05328,7e-5 -0.382196,-0.18727 -0.730913,-0.41631 -0.348718,-0.22904 -0.660008,-0.41643 -0.691755,-0.41643 -0.03175,0 -0.279473,0.44767 -0.5505015,0.99481 -0.6334135,1.27873 -2.6058739,4.97476 -4.0072134,7.50878 -0.6020621,1.0887 -1.0946584,2.01668 -1.0946584,2.06218 0,0.0455 0.3019148,-0.0871 0.6709217,-0.29466 0.3690069,-0.20756 1.0248907,-0.55738 1.4575195,-0.77737 z"
       id="path102" />
    <path
       style="fill:none"
       d="m 10.762478,301.47658 c -2.3209677,-0.44145 -4.3459283,-1.4687 -5.971475,-3.02929 -2.3382791,-2.24484 -3.5529973,-5.04735 -3.5529973,-8.19721 0,-1.93139 0.3734344,-3.47539 1.2579506,-5.20111 1.4129344,-2.7567 3.7917238,-4.75911 6.7931097,-5.71829 1.467892,-0.4691 3.158164,-0.60293 4.883261,-0.38662 4.05129,0.50799 7.795779,3.57459 9.170446,7.51026 1.01127,2.89526 0.821489,5.96791 -0.539071,8.72788 -1.597235,3.24007 -4.423214,5.43907 -7.977206,6.20735 -0.959859,0.2075 -3.180604,0.25505 -4.064018,0.087 z m -4.6660738,-6.03917 c 1.3908351,-0.74523 2.4631332,-1.20956 3.7694483,-1.63223 l 1.1783025,-0.38126 0.0016,-0.97833 c 0.002,-1.23345 0.155755,-1.71669 0.738527,-2.32131 0.385549,-0.4 0.475078,-0.44827 0.831427,-0.44827 0.346873,0 0.450674,0.0517 0.789883,0.3933 0.546264,0.55014 0.795205,1.25774 0.868532,2.46876 l 0.05843,0.96496 0.471506,0.10591 c 0.757269,0.1701 2.185499,0.76986 3.914081,1.64366 0.885148,0.44744 1.634429,0.78845 1.665069,0.75782 0.07618,-0.0762 -0.792194,-1.70484 -1.195766,-2.2427 -0.180071,-0.23999 -0.587916,-0.64395 -0.906322,-0.8977 -0.587486,-0.46818 -0.638177,-0.64561 -0.105794,-0.37031 0.160874,0.0832 0.31854,0.12521 0.350372,0.0934 0.03183,-0.0318 -0.265932,-0.66996 -0.661697,-1.41807 -1.287558,-2.43383 -3.705932,-7.33623 -4.450249,-9.02128 -0.402962,-0.91226 -0.77272,-1.63081 -0.829531,-1.61203 -0.05637,0.0186 -0.528544,1.02999 -1.049267,2.24744 l -0.946767,2.21354 0.530335,0.48568 c 0.604119,0.55324 0.589659,0.60621 -0.05689,0.20838 -0.248157,-0.15269 -0.495133,-0.27762 -0.548836,-0.27762 -0.0537,0 -0.481999,0.73917 -0.9517675,1.6426 -0.7789532,1.49803 -2.1590838,4.07073 -4.0087377,7.47268 -0.387425,0.71256 -0.704585,1.34632 -0.7048001,1.40834 -5.09e-4,0.1473 0.1276892,0.0954 1.2489115,-0.50534 z"
       id="path104" />
    <path
       style="fill:none"
       d="m 5.2419125,295.40161 c 1.1814552,-2.07188 3.4713148,-6.32446 4.4400762,-8.24582 l 0.8274453,-1.64108 0.384631,0.2639 c 0.46565,0.3195 1.730012,0.9634 1.784579,0.90883 0.02153,-0.0215 -0.159727,-0.20006 -0.402783,-0.39675 -0.243056,-0.19669 -0.677179,-0.57971 -0.964717,-0.85115 l -0.522798,-0.49352 0.531819,-1.22097 c 0.292501,-0.67153 0.69132,-1.62791 0.886265,-2.1253 0.194945,-0.49739 0.38393,-0.87218 0.419967,-0.83287 0.03604,0.0393 0.365595,0.77941 0.732352,1.64467 0.774294,1.82673 2.313872,4.97116 3.844585,7.85218 0.5909,1.11216 1.061216,2.03386 1.045147,2.04823 -0.01607,0.0144 -0.32072,-0.0896 -0.677002,-0.23112 -0.356283,-0.14148 -0.793539,-0.28485 -0.97168,-0.31859 l -0.323893,-0.0614 0.323893,0.20374 c 2.075772,1.30573 2.295216,1.50891 2.958551,2.73922 0.306903,0.56922 0.558004,1.05867 0.558004,1.08766 0,0.029 -0.593419,-0.25671 -1.318708,-0.63492 -1.550731,-0.80862 -2.606656,-1.25388 -3.64489,-1.53694 l -0.752986,-0.2053 9.35e-4,-0.89063 c 0.0018,-1.69005 -0.661335,-2.83114 -1.712097,-2.94621 -0.49376,-0.0541 -0.914673,0.20867 -1.334139,0.83281 -0.368263,0.54794 -0.519486,1.25743 -0.478085,2.24301 l 0.03215,0.76528 -0.508975,0.11164 c -0.8785845,0.19271 -2.2138314,0.73289 -3.7416079,1.51369 -0.8108955,0.41442 -1.5131317,0.76895 -1.560525,0.78783 -0.047393,0.0189 0.017627,-0.14768 0.1444884,-0.37016 z"
       id="path106" />
    <path
       style="fill:#ffffff;stroke-width:0.0925409"
       d=""
       id="path108" />
    <path
       style="fill:none"
       d="m 5.3230521,295.2516 c 0.895394,-1.56494 3.358944,-6.14794 4.2050725,-7.8228 0.6701864,-1.32659 1.0063464,-1.90206 1.0834864,-1.85481 0.06151,0.0377 0.257591,0.16798 0.435733,0.28956 0.424782,0.28992 1.581217,0.87398 1.6313,0.82389 0.02153,-0.0215 -0.159727,-0.19745 -0.402783,-0.39095 -0.243056,-0.1935 -0.676031,-0.578 -0.962166,-0.85444 l -0.520247,-0.50262 0.621,-1.44902 c 0.34155,-0.79697 0.738896,-1.7522 0.882991,-2.12274 0.144095,-0.37054 0.29169,-0.64122 0.327988,-0.60151 0.0363,0.0397 0.386751,0.82177 0.778783,1.73793 0.763031,1.78316 2.551638,5.41702 3.995134,8.1168 0.48734,0.91148 0.871189,1.67072 0.852997,1.68721 -0.01819,0.0165 -0.32458,-0.0858 -0.680862,-0.22726 -0.356283,-0.14148 -0.793539,-0.28665 -0.97168,-0.32261 -0.268787,-0.0543 -0.189771,0.0195 0.464427,0.43342 1.540846,0.97493 1.874512,1.30299 2.494124,2.4522 0.306903,0.56922 0.558004,1.05916 0.558004,1.08876 0,0.0296 -0.551775,-0.23562 -1.226167,-0.58936 -1.374757,-0.72112 -2.951697,-1.38208 -3.882513,-1.62732 l -0.620444,-0.16347 -3.4e-5,-0.84341 c -4.8e-5,-1.17186 -0.252575,-1.97161 -0.793286,-2.51233 -1.28566,-1.28566 -2.812109,0.13943 -2.717699,2.53723 l 0.03232,0.8209 -0.65127,0.15347 c -0.8858328,0.20874 -2.34143,0.81359 -3.8773347,1.61115 -0.7035387,0.36533 -1.2976486,0.66424 -1.3202441,0.66424 -0.022596,0 0.09592,-0.23945 0.2633699,-0.53211 z"
       id="path110" />
    <path
       style="fill:none;stroke-width:0.0925409"
       d="m 10.762478,301.47658 c -4.7766931,-0.90853 -8.3837444,-4.42745 -9.3379461,-9.10979 -0.23274,-1.14208 -0.2511855,-2.97726 -0.041058,-4.08496 0.6902998,-3.63897 2.8945594,-6.58909 6.1473148,-8.2274 2.0837568,-1.04952 4.1767925,-1.40309 6.6166765,-1.11771 2.322938,0.27169 4.870842,1.57404 6.59417,3.37058 2.02959,2.1158 3.050183,4.45865 3.229602,7.41379 0.189037,3.11356 -1.241058,6.60798 -3.599321,8.79492 -1.532257,1.42094 -3.504712,2.45213 -5.484124,2.86708 -1.024908,0.21485 -3.225076,0.26471 -4.125314,0.0935 z m -1.7476058,-7.38941 c 0.4854124,-0.18019 1.1412958,-0.39956 1.4575198,-0.48747 l 0.574952,-0.15986 v -0.98629 c 0,-1.24189 0.152041,-1.72245 0.736932,-2.32927 0.380291,-0.39455 0.478091,-0.44827 0.816031,-0.44827 0.956721,0 1.685969,1.34135 1.685969,3.10111 v 0.68593 l 0.393299,0.0999 c 0.973949,0.24734 2.795305,1.02221 4.649502,1.97807 0.559499,0.28843 1.031551,0.48157 1.049005,0.42921 0.05079,-0.15238 -1.008485,-2.01856 -1.395042,-2.45772 -0.19392,-0.2203 -0.566049,-0.55725 -0.826956,-0.74877 -0.495895,-0.36402 -0.484212,-0.52435 0.01924,-0.26401 0.160873,0.0832 0.314905,0.12885 0.342293,0.10146 0.02739,-0.0274 -0.248767,-0.62388 -0.61368,-1.32553 -1.411022,-2.71311 -3.79308,-7.54538 -4.437961,-9.0029 -0.371575,-0.83981 -0.733496,-1.58677 -0.804271,-1.65992 -0.111072,-0.1148 -0.147241,-0.0895 -0.264326,0.18508 -0.07461,0.17494 -0.511894,1.19259 -0.971752,2.26144 l -0.836106,1.94335 0.52967,0.4836 c 0.291317,0.26598 0.499062,0.4846 0.461653,0.48584 -0.03741,0.001 -0.271052,-0.12269 -0.51921,-0.27538 -0.248157,-0.15269 -0.492439,-0.27762 -0.542849,-0.27762 -0.05041,0 -0.6446745,1.0515 -1.3205885,2.33666 -0.6759141,1.28516 -1.9314207,3.62954 -2.7900147,5.20974 -0.8585941,1.5802 -1.5610801,2.9233 -1.5610801,2.98466 0,0.0614 0.7391706,-0.25899 1.6426014,-0.71191 0.9034308,-0.45292 2.0397568,-0.97092 2.5251691,-1.15111 z"
       id="path112" />
    <path
       style="fill:none;stroke-width:0.0925409"
       d="m 5.3201113,295.39041 c 0.060147,-0.11452 0.5545863,-1.02026 1.0987545,-2.01276 0.5441683,-0.9925 1.4808306,-2.74153 2.0814719,-3.88672 1.5323803,-2.92167 2.0114033,-3.79418 2.0830633,-3.79418 0.0342,0 0.383587,0.18316 0.776409,0.40702 1.279819,0.72933 1.733527,0.80991 0.975964,0.17332 -0.22511,-0.18916 -0.64863,-0.57411 -0.941155,-0.85543 l -0.531863,-0.51151 0.850071,-2.01382 c 0.467539,-1.1076 0.881007,-1.98211 0.918818,-1.94336 0.03781,0.0388 0.428188,0.88251 0.867505,1.87501 0.439317,0.9925 1.651206,3.48626 2.693087,5.54169 1.04188,2.05543 1.875808,3.75566 1.853172,3.7783 -0.02264,0.0226 -0.338819,-0.0662 -0.702628,-0.19745 -1.226501,-0.44243 -1.205685,-0.30627 0.08309,0.54351 1.086738,0.71656 1.61046,1.27387 2.123118,2.25926 0.210254,0.40413 0.38228,0.75672 0.38228,0.78352 0,0.0268 -0.676705,-0.27709 -1.50379,-0.6753 -1.545283,-0.744 -3.00658,-1.32814 -3.596412,-1.43764 l -0.334345,-0.0621 -0.06136,-0.94062 c -0.07608,-1.16618 -0.2637,-1.79666 -0.679094,-2.28195 -0.390662,-0.45641 -0.740533,-0.6483 -1.181999,-0.6483 -1.041046,0 -1.712007,1.14682 -1.712007,2.92619 0,0.62057 -0.03352,0.88291 -0.115676,0.90524 -1.0939773,0.29743 -2.5359055,0.85656 -3.8401724,1.48909 -0.8927343,0.43295 -1.6394673,0.78718 -1.6594067,0.78718 -0.019939,0 0.012958,-0.0937 0.073104,-0.20822 z"
       id="path114" />
    <path
       style="fill:none;stroke-width:0.0925409"
       d="m 5.3201113,295.39041 c 0.060147,-0.11452 0.5545863,-1.02026 1.0987545,-2.01276 0.5441683,-0.9925 1.4808306,-2.74153 2.0814719,-3.88672 1.5323803,-2.92167 2.0114033,-3.79418 2.0830633,-3.79418 0.0342,0 0.383587,0.18316 0.776409,0.40702 1.279819,0.72933 1.733527,0.80991 0.975964,0.17332 -0.22511,-0.18916 -0.64863,-0.57411 -0.941155,-0.85543 l -0.531863,-0.51151 0.850071,-2.01382 c 0.467539,-1.1076 0.881007,-1.98211 0.918818,-1.94336 0.03781,0.0388 0.428188,0.88251 0.867505,1.87501 0.439317,0.9925 1.651206,3.48626 2.693087,5.54169 1.04188,2.05543 1.875808,3.75566 1.853172,3.7783 -0.02264,0.0226 -0.338819,-0.0662 -0.702628,-0.19745 -1.226501,-0.44243 -1.205685,-0.30627 0.08309,0.54351 1.086738,0.71656 1.61046,1.27387 2.123118,2.25926 0.210254,0.40413 0.38228,0.75672 0.38228,0.78352 0,0.0268 -0.676705,-0.27709 -1.50379,-0.6753 -1.545283,-0.744 -3.00658,-1.32814 -3.596412,-1.43764 l -0.334345,-0.0621 -0.06136,-0.94062 c -0.07608,-1.16618 -0.2637,-1.79666 -0.679094,-2.28195 -0.390662,-0.45641 -0.740533,-0.6483 -1.181999,-0.6483 -1.041046,0 -1.712007,1.14682 -1.712007,2.92619 0,0.62057 -0.03352,0.88291 -0.115676,0.90524 -1.0939773,0.29743 -2.5359055,0.85656 -3.8401724,1.48909 -0.8927343,0.43295 -1.6394673,0.78718 -1.6594067,0.78718 -0.019939,0 0.012958,-0.0937 0.073104,-0.20822 z"
       id="path116" />
    <path
       style="fill:none;stroke-width:0.0925409"
       d="m 5.3201113,295.39041 c 0.060147,-0.11452 0.5545863,-1.02026 1.0987545,-2.01276 0.5441683,-0.9925 1.4808306,-2.74153 2.0814719,-3.88672 1.5323803,-2.92167 2.0114033,-3.79418 2.0830633,-3.79418 0.0342,0 0.383587,0.18316 0.776409,0.40702 1.279819,0.72933 1.733527,0.80991 0.975964,0.17332 -0.22511,-0.18916 -0.64863,-0.57411 -0.941155,-0.85543 l -0.531863,-0.51151 0.850071,-2.01382 c 0.467539,-1.1076 0.881007,-1.98211 0.918818,-1.94336 0.03781,0.0388 0.428188,0.88251 0.867505,1.87501 0.439317,0.9925 1.651206,3.48626 2.693087,5.54169 1.04188,2.05543 1.875808,3.75566 1.853172,3.7783 -0.02264,0.0226 -0.338819,-0.0662 -0.702628,-0.19745 -1.226501,-0.44243 -1.205685,-0.30627 0.08309,0.54351 1.086738,0.71656 1.61046,1.27387 2.123118,2.25926 0.210254,0.40413 0.38228,0.75672 0.38228,0.78352 0,0.0268 -0.676705,-0.27709 -1.50379,-0.6753 -1.545283,-0.744 -3.00658,-1.32814 -3.596412,-1.43764 l -0.334345,-0.0621 -0.06136,-0.94062 c -0.07608,-1.16618 -0.2637,-1.79666 -0.679094,-2.28195 -0.390662,-0.45641 -0.740533,-0.6483 -1.181999,-0.6483 -1.041046,0 -1.712007,1.14682 -1.712007,2.92619 0,0.62057 -0.03352,0.88291 -0.115676,0.90524 -1.0939773,0.29743 -2.5359055,0.85656 -3.8401724,1.48909 -0.8927343,0.43295 -1.6394673,0.78718 -1.6594067,0.78718 -0.019939,0 0.012958,-0.0937 0.073104,-0.20822 z"
       id="path118" />
    <path
       style="fill:none;stroke-width:0.0925409"
       d="m 5.3201113,295.39041 c 0.060147,-0.11452 0.5545863,-1.02026 1.0987545,-2.01276 0.5441683,-0.9925 1.4808306,-2.74153 2.0814719,-3.88672 1.5323803,-2.92167 2.0114033,-3.79418 2.0830633,-3.79418 0.0342,0 0.383587,0.18316 0.776409,0.40702 1.279819,0.72933 1.733527,0.80991 0.975964,0.17332 -0.22511,-0.18916 -0.64863,-0.57411 -0.941155,-0.85543 l -0.531863,-0.51151 0.850071,-2.01382 c 0.467539,-1.1076 0.881007,-1.98211 0.918818,-1.94336 0.03781,0.0388 0.428188,0.88251 0.867505,1.87501 0.439317,0.9925 1.651206,3.48626 2.693087,5.54169 1.04188,2.05543 1.875808,3.75566 1.853172,3.7783 -0.02264,0.0226 -0.338819,-0.0662 -0.702628,-0.19745 -1.226501,-0.44243 -1.205685,-0.30627 0.08309,0.54351 1.086738,0.71656 1.61046,1.27387 2.123118,2.25926 0.210254,0.40413 0.38228,0.75672 0.38228,0.78352 0,0.0268 -0.676705,-0.27709 -1.50379,-0.6753 -1.545283,-0.744 -3.00658,-1.32814 -3.596412,-1.43764 l -0.334345,-0.0621 -0.06136,-0.94062 c -0.07608,-1.16618 -0.2637,-1.79666 -0.679094,-2.28195 -0.390662,-0.45641 -0.740533,-0.6483 -1.181999,-0.6483 -1.041046,0 -1.712007,1.14682 -1.712007,2.92619 0,0.62057 -0.03352,0.88291 -0.115676,0.90524 -1.0939773,0.29743 -2.5359055,0.85656 -3.8401724,1.48909 -0.8927343,0.43295 -1.6394673,0.78718 -1.6594067,0.78718 -0.019939,0 0.012958,-0.0937 0.073104,-0.20822 z"
       id="path120" />
    <path
       style="fill:none;stroke-width:0.0925409"
       d="m 5.017724,295.78214 c 0,-0.0295 0.6732412,-1.2892 1.4960916,-2.79936 0.8228503,-1.51016 2.0285722,-3.766 2.679382,-5.01299 0.6508097,-1.24699 1.2164604,-2.3192 1.2570004,-2.38268 0.05421,-0.0849 0.252516,-0.003 0.749562,0.31125 0.371719,0.23468 0.704866,0.39739 0.740328,0.36158 0.03546,-0.0358 -0.219986,-0.33486 -0.567662,-0.66457 -0.450979,-0.42768 -0.615874,-0.64408 -0.57539,-0.75513 0.235765,-0.64669 1.760069,-4.18118 1.803197,-4.18118 0.02998,0 0.321725,0.61424 0.648331,1.36497 0.854975,1.96526 2.377155,5.08804 3.842014,7.88199 0.699406,1.33399 1.247906,2.44917 1.218889,2.47819 -0.02902,0.029 -0.259552,-0.0362 -0.5123,-0.14493 -0.520158,-0.22377 -0.564041,-0.23231 -0.564041,-0.10983 0,0.0483 0.268273,0.2793 0.596163,0.51328 0.84393,0.60222 1.416773,1.27049 1.935028,2.25739 0.246962,0.47027 0.428408,0.87566 0.403214,0.90086 -0.02519,0.0252 -0.726975,-0.29528 -1.559513,-0.71216 -1.570428,-0.78637 -3.304034,-1.50635 -3.88508,-1.61351 l -0.335477,-0.0619 -0.04467,-0.98669 c -0.06274,-1.38596 -0.452627,-2.27793 -1.172558,-2.68256 -0.567433,-0.31891 -0.990458,-0.22808 -1.502519,0.32264 -0.525218,0.56487 -0.66567,1.00482 -0.709038,2.22099 l -0.04013,1.12537 -0.325359,0.061 c -0.7394385,0.13872 -2.5702021,0.86846 -3.991193,1.59089 -1.574477,0.80045 -1.584274,0.80489 -1.584274,0.71702 z"
       id="path122" />
    <path
       style="fill:none;stroke-width:0.0925409"
       d="m 5.017724,295.78214 c 0,-0.0295 0.6732412,-1.2892 1.4960916,-2.79936 0.8228503,-1.51016 2.0285722,-3.766 2.679382,-5.01299 0.6508097,-1.24699 1.2164604,-2.3192 1.2570004,-2.38268 0.05421,-0.0849 0.252516,-0.003 0.749562,0.31125 0.371719,0.23468 0.704866,0.39739 0.740328,0.36158 0.03546,-0.0358 -0.219986,-0.33486 -0.567662,-0.66457 -0.450979,-0.42768 -0.615874,-0.64408 -0.57539,-0.75513 0.235765,-0.64669 1.760069,-4.18118 1.803197,-4.18118 0.02998,0 0.321725,0.61424 0.648331,1.36497 0.854975,1.96526 2.377155,5.08804 3.842014,7.88199 0.699406,1.33399 1.247906,2.44917 1.218889,2.47819 -0.02902,0.029 -0.259552,-0.0362 -0.5123,-0.14493 -0.520158,-0.22377 -0.564041,-0.23231 -0.564041,-0.10983 0,0.0483 0.268273,0.2793 0.596163,0.51328 0.84393,0.60222 1.416773,1.27049 1.935028,2.25739 0.246962,0.47027 0.428408,0.87566 0.403214,0.90086 -0.02519,0.0252 -0.726975,-0.29528 -1.559513,-0.71216 -1.570428,-0.78637 -3.304034,-1.50635 -3.88508,-1.61351 l -0.335477,-0.0619 -0.04467,-0.98669 c -0.06274,-1.38596 -0.452627,-2.27793 -1.172558,-2.68256 -0.567433,-0.31891 -0.990458,-0.22808 -1.502519,0.32264 -0.525218,0.56487 -0.66567,1.00482 -0.709038,2.22099 l -0.04013,1.12537 -0.325359,0.061 c -0.7394385,0.13872 -2.5702021,0.86846 -3.991193,1.59089 -1.574477,0.80045 -1.584274,0.80489 -1.584274,0.71702 z"
       id="path124" />
    <path
       style="fill:#ffffff;stroke-width:0.0925409"
       d="m 4.7361249,295.78214 c 0,-0.0295 0.6732412,-1.2892 1.4960916,-2.79936 0.8228503,-1.51016 2.0285722,-3.766 2.679382,-5.01299 0.6508097,-1.24699 1.2164605,-2.3192 1.2570005,-2.38268 0.05421,-0.0849 0.252516,-0.003 0.749562,0.31125 0.371719,0.23468 0.704866,0.39739 0.740328,0.36158 0.03546,-0.0358 -0.219986,-0.33486 -0.567662,-0.66457 -0.450979,-0.42768 -0.615874,-0.64408 -0.57539,-0.75513 0.235765,-0.64669 1.760069,-4.18118 1.803197,-4.18118 0.02998,0 0.321725,0.61424 0.648331,1.36497 0.854975,1.96526 2.377155,5.08804 3.842014,7.88199 0.699406,1.33399 1.247906,2.44917 1.218889,2.47819 -0.02902,0.029 -0.259552,-0.0362 -0.5123,-0.14493 -0.520158,-0.22377 -0.564041,-0.23231 -0.564041,-0.10983 0,0.0483 0.268273,0.2793 0.596163,0.51328 0.84393,0.60222 1.416773,1.27049 1.935028,2.25739 0.246962,0.47027 0.428408,0.87566 0.403214,0.90086 -0.02519,0.0252 -0.726975,-0.29528 -1.559513,-0.71216 -1.570428,-0.78637 -3.304034,-1.50635 -3.88508,-1.61351 l -0.335477,-0.0619 -0.04467,-0.98669 c -0.06274,-1.38596 -0.452627,-2.27793 -1.172558,-2.68256 -0.567433,-0.31891 -0.990458,-0.22808 -1.502519,0.32264 -0.525218,0.56487 -0.66567,1.00482 -0.709038,2.22099 l -0.04013,1.12537 -0.325359,0.061 c -0.7394386,0.13872 -2.5702022,0.86846 -3.9911931,1.59089 -1.574477,0.80045 -1.584274,0.80489 -1.584274,0.71702 z"
       id="path126" />
    <path
       style="fill:none;stroke-width:0.0925409"
       d="m 10.385098,301.39243 c -5.3575729,-1.14322 -9.1615518,-5.77507 -9.1615518,-11.15539 0,-3.57385 1.7111973,-6.99137 4.5699539,-9.12689 0.9221026,-0.68882 2.6888726,-1.56598 3.8049996,-1.88908 1.0379503,-0.30048 2.5129393,-0.41486 4.0439833,-0.3136 4.625864,0.30595 8.795354,3.84465 9.977903,8.46837 0.854794,3.34222 0.169043,6.83612 -1.885617,9.60724 -1.762668,2.37731 -4.604756,4.1016 -7.400243,4.48972 -1.112934,0.15452 -3.03165,0.11547 -3.949428,-0.0804 z m -4.3831524,-5.90374 c 1.8397312,-0.97377 3.1420625,-1.50894 4.9152624,-2.01985 0.0831,-0.0239 0.115676,-0.30752 0.115676,-1.00692 0,-0.73713 0.0433,-1.08754 0.178269,-1.44276 0.602931,-1.58678 1.787037,-1.81762 2.559788,-0.49902 0.342518,0.58446 0.498517,1.26509 0.499777,2.18054 l 0.0011,0.79791 0.373443,0.0597 c 0.57718,0.0923 2.19096,0.75713 4.006504,1.65057 0.907494,0.44658 1.667487,0.81197 1.688872,0.81197 0.111321,0 -0.0097,-0.28738 -0.480396,-1.14073 -0.650535,-1.1794 -0.990783,-1.59897 -1.746945,-2.15418 -0.329863,-0.2422 -0.584592,-0.45553 -0.566067,-0.47405 0.01853,-0.0185 0.2252,0.0594 0.459276,0.17309 0.234077,0.11372 0.457161,0.1752 0.495742,0.13662 0.03858,-0.0386 -0.02605,-0.24424 -0.143629,-0.45703 -1.213953,-2.19691 -4.05272,-7.91439 -5.005054,-10.08054 -0.374812,-0.85253 -0.712694,-1.55006 -0.75085,-1.55006 -0.03815,0 -0.09154,0.0521 -0.11864,0.11568 -0.0271,0.0636 -0.447986,1.05065 -0.93531,2.19339 -0.487325,1.14275 -0.886044,2.12333 -0.886044,2.17907 0,0.0557 0.16581,0.26326 0.368465,0.46114 0.202656,0.19789 0.351677,0.37659 0.331159,0.39711 -0.02052,0.0205 -0.229853,-0.0755 -0.465187,-0.21345 -0.235333,-0.13791 -0.440824,-0.23528 -0.456645,-0.21638 -0.01582,0.0189 -0.5618257,1.05465 -1.2133425,2.30164 -0.6515166,1.24698 -1.7969437,3.39162 -2.5453933,4.76585 -1.3837801,2.54077 -1.849134,3.42497 -1.849134,3.51348 0,0.11148 0.2114802,0.0242 1.1693034,-0.48281 z"
       id="path179" />
    <path
       style="fill:none;stroke-width:0.0925409"
       d="m 11.477662,301.47235 c -0.544283,-0.0374 -1.222414,-0.13565 -1.5069555,-0.21836 -0.2845418,-0.0827 -0.5540109,-0.12774 -0.5988203,-0.10005 -0.04481,0.0277 -0.095439,0.01 -0.112511,-0.04 -0.017071,-0.0497 -0.1351477,-0.10203 -0.2623915,-0.11625 -0.1272438,-0.0142 -0.2729957,-0.0581 -0.3238932,-0.0976 -0.050898,-0.0394 -0.5089751,-0.27417 -1.0179502,-0.52162 -1.1908886,-0.57897 -2.1270449,-1.24531 -3.0592396,-2.1775 -1.2410326,-1.24103 -2.2372954,-2.83811 -2.7309779,-4.37795 -0.1183062,-0.36901 -0.2446502,-0.67092 -0.2807644,-0.67092 -0.036114,0 -0.043882,-0.0833 -0.017262,-0.18508 0.02662,-0.1018 0.00767,-0.18508 -0.042101,-0.18508 -0.049776,0 -0.0706,-0.10411 -0.046275,-0.23136 0.024324,-0.12724 0.00814,-0.23153 -0.035968,-0.23175 -0.044107,-1.8e-4 -0.094126,-0.38542 -0.1111545,-0.856 -0.017028,-0.47058 -0.069083,-0.86949 -0.1156762,-0.88645 -0.1153609,-0.042 -0.1081115,-0.57067 0.00782,-0.57067 0.050898,0 0.092541,-0.22359 0.092541,-0.49686 0,-1.78497 0.9357039,-4.33777 2.2233054,-6.06564 0.6183989,-0.82985 1.7772878,-1.95541 2.5619469,-2.48826 0.796562,-0.54094 2.4435911,-1.34564 3.3120781,-1.61822 0.40718,-0.12779 1.1151181,-0.27657 1.5731961,-0.33062 0.91769,-0.10828 2.419875,-0.15135 2.637416,-0.0756 0.07635,0.0266 0.403146,0.075 0.726223,0.10748 0.323076,0.0325 0.947727,0.16537 1.388114,0.2952 0.440386,0.12983 0.863167,0.24183 0.939513,0.24887 0.07635,0.007 0.159633,0.0387 0.185082,0.0704 0.02545,0.0317 0.358596,0.21378 0.740328,0.40465 1.543201,0.7716 3.024584,2.00327 4.056441,3.37265 0.915915,1.21551 1.8326,3.2194 2.008105,4.38975 0.03529,0.23535 0.09719,0.42791 0.137539,0.42791 0.04035,0 0.05175,0.0827 0.02533,0.1837 -0.02642,0.10103 -0.02018,0.25631 0.01388,0.34505 0.09319,0.24286 0.10984,2.80275 0.01823,2.80273 -0.04374,0 -0.06251,0.14575 -0.04172,0.32389 0.0208,0.17814 -2.78e-4,0.32389 -0.04693,0.32389 -0.04661,0 -0.06512,0.10266 -0.04114,0.22812 0.02398,0.12547 0.0057,0.24075 -0.04057,0.25619 -0.0463,0.0154 -0.0923,0.18327 -0.102225,0.37297 -0.0099,0.18971 -0.04597,0.34511 -0.0801,0.34534 -0.05769,3.7e-4 -0.206262,0.48543 -0.212714,0.69447 -0.0016,0.0509 -0.05731,0.14996 -0.123855,0.22015 -0.06655,0.0702 -0.100121,0.18201 -0.0746,0.24851 0.02552,0.0665 0.0124,0.134 -0.02915,0.15001 -0.04155,0.016 -0.190937,0.25815 -0.331974,0.53809 -1.134697,2.2522 -3.030495,4.08234 -5.397917,5.21098 -0.440465,0.20999 -0.813946,0.41202 -0.829959,0.44898 -0.01601,0.037 -0.08889,0.0443 -0.161947,0.0162 -0.07306,-0.028 -0.132832,-0.006 -0.132832,0.0486 0,0.0547 -0.06246,0.0756 -0.138812,0.0463 -0.07635,-0.0293 -0.138811,-0.0118 -0.138811,0.0389 0,0.0507 -0.05205,0.0865 -0.115676,0.0796 -0.06362,-0.007 -0.490467,0.0582 -0.948545,0.14472 -1.036222,0.19562 -2.113644,0.24562 -3.39567,0.15757 z m -4.7784544,-6.28128 c 0.9329431,-0.45638 1.7379035,-0.8624 1.788801,-0.90227 0.050897,-0.0399 0.1341844,-0.0725 0.1850819,-0.0725 0.1957677,0 1.4343845,-0.46236 1.4343845,-0.53543 0,-0.0424 0.03514,-0.0553 0.07809,-0.0288 0.04295,0.0265 0.23002,0.006 0.415713,-0.045 0.387932,-0.10712 0.396006,-0.12987 0.473337,-1.33423 0.06737,-1.04927 0.246773,-1.59618 0.685912,-2.09103 0.279181,-0.3146 0.426149,-0.40127 0.757894,-0.44698 0.374158,-0.0515 0.441893,-0.029 0.745492,0.2486 0.183666,0.16791 0.411764,0.44981 0.506883,0.62643 0.09512,0.17663 0.203811,0.32114 0.241538,0.32114 0.03773,0 0.04462,0.0625 0.01533,0.13881 -0.02934,0.0765 -0.0027,0.13881 0.05921,0.13881 0.168821,0 0.03592,-0.44532 -0.261952,-0.87777 -0.765833,-1.11181 -1.873794,-1.01747 -2.544786,0.21668 -0.227826,0.41904 -0.272441,0.63256 -0.344424,1.64829 -0.04548,0.64179 -0.09428,1.17385 -0.108433,1.18237 -0.01416,0.008 -0.254778,0.0714 -0.534715,0.13986 -0.7199829,0.17594 -2.1391281,0.75057 -3.6930079,1.49537 -0.7332638,0.35146 -1.3528147,0.61942 -1.3767797,0.59545 -0.023965,-0.024 0.6010665,-1.24245 1.388959,-2.70775 0.7878924,-1.46529 1.98866,-3.71382 2.6683725,-4.99674 l 1.2358411,-2.33256 0.680663,0.37573 c 0.374364,0.20666 0.703912,0.35249 0.732328,0.32407 0.06078,-0.0608 -0.386767,-0.63845 -0.794925,-1.02606 -0.157417,-0.14949 -0.286213,-0.31114 -0.286213,-0.35922 0,-0.14892 1.689554,-4.04229 1.754178,-4.04229 0.03352,0 0.451629,0.8641 0.929133,1.92022 0.477505,1.05612 1.735185,3.63802 2.794845,5.73754 1.059661,2.09952 1.889752,3.81731 1.844647,3.81731 -0.0451,0 -0.231508,-0.0625 -0.41423,-0.13881 -0.767693,-0.32076 -0.696381,-0.11357 0.22259,0.64671 0.410213,0.33938 0.921382,0.85551 1.135934,1.14695 0.478638,0.65019 0.958749,1.55064 0.872676,1.63671 -0.03498,0.035 -0.804384,-0.29091 -1.709784,-0.72421 -1.680308,-0.80414 -3.302033,-1.45686 -3.619662,-1.45686 -0.200791,0 -0.291031,-0.36201 -0.292753,-1.17443 -5.55e-4,-0.26421 -0.04548,-0.50786 -0.09983,-0.54145 -0.06913,-0.0427 -0.07938,0.21276 -0.03412,0.85054 0.03558,0.50139 0.07385,0.92277 0.08505,0.93641 0.05247,0.0639 1.025055,0.27803 1.087509,0.23943 0.03898,-0.0241 0.07087,-0.004 0.07087,0.0442 0,0.0797 0.371305,0.22885 0.601516,0.24169 0.0509,0.003 0.113363,0.03 0.138812,0.0604 0.07228,0.0862 2.900945,1.39616 3.030715,1.40349 0.06362,0.004 0.115676,0.0437 0.115676,0.0891 0,0.0454 0.04164,0.0568 0.09254,0.0254 0.0509,-0.0315 0.09254,-0.0106 0.09254,0.0463 0,0.0569 0.03809,0.0799 0.08464,0.0512 0.04655,-0.0288 0.0986,-0.0105 0.115676,0.0406 0.04282,0.12825 0.632555,0.29203 0.632555,0.17567 0,-0.10338 -0.366758,-0.84603 -0.452,-0.91526 -0.03134,-0.0255 -0.06811,-0.10049 -0.08171,-0.16675 -0.06511,-0.31714 -0.837809,-1.36749 -1.348158,-1.83261 -0.547589,-0.49905 -0.558404,-0.51733 -0.269707,-0.45595 0.221874,0.0472 0.300758,0.0313 0.300758,-0.0605 0,-0.1627 -0.363668,-0.84259 -0.497437,-0.92997 -0.05724,-0.0374 -0.06907,-0.0686 -0.02628,-0.0694 0.09449,-0.002 -0.752909,-1.59289 -0.899428,-1.68888 -0.05708,-0.0374 -0.07237,-0.0686 -0.03397,-0.0694 0.03839,-7.4e-4 -0.38936,-0.91902 -0.950566,-2.04055 -0.894776,-1.78811 -1.438929,-2.92226 -3.074238,-6.40745 -0.209545,-0.44659 -0.418373,-0.79952 -0.464061,-0.78429 -0.04569,0.0152 -0.07639,0.0636 -0.06823,0.10757 0.0082,0.0439 -0.02497,0.10536 -0.07364,0.1365 -0.08931,0.0571 -0.730541,1.51139 -0.779853,1.76862 -0.01463,0.0764 -0.05269,0.15964 -0.08455,0.18509 -0.08604,0.0687 -0.666957,1.49345 -0.666957,1.63577 0,0.0674 -0.0314,0.1225 -0.06977,0.1225 -0.14196,0 -0.203268,0.58451 -0.07228,0.68914 0.163326,0.13048 0.38097,0.51479 0.289355,0.51095 -0.0386,-0.002 -0.151025,-0.0641 -0.249823,-0.13881 -0.0988,-0.0747 -0.23307,-0.13587 -0.298382,-0.13587 -0.125128,0 -0.457757,0.55422 -0.334094,0.55667 0.03948,7.7e-4 0.0245,0.032 -0.03328,0.0694 -0.160193,0.10367 -1.3380623,2.3882 -1.2676309,2.45863 0.033933,0.0339 0.013578,0.0617 -0.045235,0.0617 -0.126485,0 -0.8665579,1.43257 -0.7831576,1.51597 0.031471,0.0315 0.00924,0.0572 -0.049411,0.0572 -0.1266312,0 -0.6817342,1.06245 -0.5985595,1.14563 0.031573,0.0316 0.00952,0.0574 -0.049,0.0574 -0.1267487,0 -0.5893727,0.87742 -0.5063816,0.96041 0.031648,0.0317 0.015576,0.0575 -0.035716,0.0575 -0.1212975,0 -0.6005015,0.87943 -0.5219867,0.95795 0.032999,0.033 0.018032,0.06 -0.033259,0.06 -0.1106497,0 -0.6312344,0.92476 -0.5217465,0.92683 0.04135,7.4e-4 0.029933,0.032 -0.02537,0.0694 -0.1634025,0.11048 -0.598612,0.91117 -0.5316566,0.97812 0.033847,0.0338 0.00601,0.0615 -0.061849,0.0615 -0.067863,0 -0.097609,0.0258 -0.066101,0.0573 0.031508,0.0315 -0.00319,0.11777 -0.077117,0.1917 -0.1499707,0.14997 -0.1807016,0.3988 -0.049252,0.3988 0.046834,0 0.8484697,-0.3734 1.7814128,-0.82977 z m 7.5726084,-3.751 c 0,-0.0763 -0.04164,-0.13881 -0.09254,-0.13881 -0.0509,0 -0.09254,0.0625 -0.09254,0.13881 0,0.0763 0.04164,0.13881 0.09254,0.13881 0.0509,0 0.09254,-0.0625 0.09254,-0.13881 z"
       id="path181" />
    <path
       style="fill:none"
       d="m 11.495589,301.47262 c -0.534424,-0.0365 -1.218422,-0.13082 -1.5199949,-0.20963 -0.3015732,-0.0788 -0.5791096,-0.12425 -0.6167473,-0.10099 -0.037638,0.0233 -0.0824,0.002 -0.099472,-0.0481 -0.017071,-0.0497 -0.1351473,-0.10203 -0.2623911,-0.11625 -0.1272438,-0.0142 -0.252174,-0.0467 -0.2776228,-0.0721 -0.025449,-0.0254 -0.3993746,-0.21285 -0.8309462,-0.41644 -2.8215647,-1.33104 -5.1225616,-3.87305 -6.0198019,-6.65031 -0.1089037,-0.33709 -0.2322207,-0.63404 -0.2740376,-0.65989 -0.041817,-0.0258 -0.054262,-0.13023 -0.027655,-0.23197 0.026607,-0.10175 0.00765,-0.18499 -0.042125,-0.18499 -0.049776,0 -0.0706,-0.10411 -0.046275,-0.23136 0.024324,-0.12724 0.00814,-0.23157 -0.035968,-0.23184 -0.044107,-2.8e-4 -0.091481,-0.28136 -0.1052772,-0.62465 -0.013796,-0.34329 -0.074347,-0.8244 -0.1345577,-1.06914 -0.084855,-0.34491 -0.084417,-0.4851 0.00195,-0.6234 0.061282,-0.0981 0.1114225,-0.39106 0.1114225,-0.65097 0,-0.9493 0.4218114,-2.54828 1.0539007,-3.99505 0.083388,-0.19087 0.1302345,-0.34703 0.1041027,-0.34703 -0.026132,0 0.018557,-0.0729 0.099309,-0.16195 0.080752,-0.0891 0.3584516,-0.49509 0.6171114,-0.90227 0.5402351,-0.85044 2.1629556,-2.52132 2.9397149,-3.02696 0.8024927,-0.5224 2.4712035,-1.32575 3.2831915,-1.58059 0.8577761,-0.26921 2.0358931,-0.4264 3.2852031,-0.43832 3.424066,-0.0327 6.821367,1.69171 8.981945,4.55901 0.716665,0.95109 1.566216,2.67695 1.837277,3.73244 0.116701,0.45442 0.234914,0.88868 0.262696,0.96503 0.02778,0.0763 0.04143,0.23181 0.03033,0.34548 -0.0111,0.11366 0.006,0.24899 0.03795,0.30073 0.07815,0.12644 0.0746,2.6914 -0.004,2.89624 -0.03418,0.0891 -0.04053,0.24462 -0.01411,0.34565 0.02642,0.10104 0.0054,0.1837 -0.04663,0.1837 -0.05207,0 -0.07504,0.10266 -0.05106,0.22812 0.02398,0.12547 0.0087,0.23999 -0.03388,0.25449 -0.04262,0.0145 -0.08862,0.18244 -0.102225,0.37321 -0.01361,0.19076 -0.05266,0.34692 -0.08679,0.34703 -0.05768,1.8e-4 -0.206258,0.48508 -0.212714,0.69424 -0.0016,0.0509 -0.05731,0.14996 -0.123854,0.22015 -0.06655,0.0702 -0.100121,0.18201 -0.07461,0.24851 0.02552,0.0665 0.01527,0.134 -0.02278,0.15001 -0.03804,0.016 -0.243372,0.35403 -0.456283,0.75115 -0.817619,1.52499 -1.809108,2.68894 -3.152641,3.70101 -0.880694,0.66342 -2.908489,1.79243 -3.136402,1.74625 -0.06362,-0.0129 -0.115676,0.0187 -0.115676,0.0703 0,0.0515 -0.06247,0.0697 -0.138811,0.0404 -0.07635,-0.0293 -0.138812,-0.0141 -0.138812,0.0337 0,0.0479 -0.05205,0.0872 -0.115676,0.0875 -0.06362,2.8e-4 -0.469645,0.0668 -0.902274,0.14785 -0.986998,0.18497 -2.171387,0.23757 -3.424014,0.15205 z m -4.8366245,-6.26996 c 0.9066455,-0.45001 1.7099025,-0.83992 1.7850157,-0.86647 0.075113,-0.0265 0.1080707,-0.079 0.073239,-0.11657 -0.034832,-0.0376 -0.7816355,0.26837 -1.659564,0.67985 -0.8779285,0.41147 -1.612222,0.73215 -1.6317633,0.71261 -0.045756,-0.0457 0.263218,-0.6546 1.3188299,-2.59881 0.7289555,-1.34258 1.5873801,-2.95022 3.5926662,-6.72828 l 0.378502,-0.71311 0.680693,0.37575 c 0.37438,0.20666 0.704194,0.35224 0.73292,0.32352 0.05409,-0.0541 -0.543044,-0.80534 -0.886316,-1.11507 -0.107462,-0.097 -0.195385,-0.21994 -0.195385,-0.2733 0,-0.15356 1.683669,-4.03864 1.750214,-4.03864 0.03289,0 0.386943,0.71835 0.786778,1.59633 0.399836,0.87798 1.657816,3.45987 2.795511,5.73754 1.137696,2.27766 2.0392,4.1412 2.003343,4.1412 -0.03586,0 -0.244501,-0.0685 -0.463651,-0.15217 -0.557696,-0.21299 -0.608359,-0.0719 -0.116707,0.32498 0.836378,0.67517 1.558089,1.47485 1.97716,2.19075 0.235897,0.40298 0.428904,0.78842 0.428904,0.85654 0,0.17077 -0.221725,0.0916 -1.415437,-0.50531 -0.549451,-0.27475 -1.038762,-0.47498 -1.087356,-0.44495 -0.04859,0.03 -0.08835,0.0144 -0.08835,-0.0347 0,-0.11312 -1.884909,-0.91273 -2.490871,-1.05668 -0.516855,-0.12277 -0.56298,-0.21982 -0.56298,-1.18454 0,-0.29602 -0.0427,-0.56461 -0.0949,-0.59687 -0.127415,-0.0788 -0.0036,1.73776 0.124089,1.82093 0.101091,0.0658 0.897245,0.21218 1.011892,0.186 0.03817,-0.009 0.0694,0.0258 0.0694,0.0767 0,0.0509 0.05205,0.0927 0.115677,0.093 0.06362,2.8e-4 0.527829,0.18631 1.031572,0.41348 0.503743,0.22717 0.947852,0.39328 0.986911,0.36914 0.03906,-0.0241 0.08498,-0.007 0.102054,0.0378 0.04166,0.10969 1.330953,0.75229 1.509384,0.75229 0.07762,0 0.141121,0.0486 0.141121,0.10797 0,0.0594 0.02449,0.0835 0.05441,0.0535 0.02993,-0.0299 0.247856,0.0437 0.484287,0.16349 0.236432,0.11985 0.448047,0.19974 0.470256,0.17753 0.06006,-0.0601 -0.38025,-0.96525 -0.469528,-0.96525 -0.0422,0 -0.07672,-0.0645 -0.07672,-0.14325 0,-0.26283 -0.666338,-1.19168 -1.283385,-1.78899 -0.582664,-0.56402 -0.596559,-0.58746 -0.311049,-0.52476 0.197878,0.0435 0.298861,0.0306 0.298861,-0.0379 0,-0.15106 -0.377384,-0.87118 -0.498271,-0.95079 -0.05679,-0.0374 -0.06983,-0.0686 -0.02899,-0.0694 0.08064,-0.002 -0.752951,-1.58694 -0.880149,-1.67395 -0.04267,-0.0292 -0.09418,-0.1333 -0.114468,-0.23136 -0.02029,-0.098 -0.742195,-1.61497 -1.604238,-3.37093 -0.862043,-1.75596 -1.764975,-3.62992 -2.006516,-4.16434 -0.241541,-0.53442 -0.522487,-1.10863 -0.624325,-1.27601 l -0.185161,-0.30432 -0.188342,0.35059 c -0.191345,0.35619 -0.803265,1.74947 -0.805261,1.83349 -5.55e-4,0.0253 -0.05995,0.16006 -0.131898,0.29949 -0.243498,0.47193 -0.600693,1.41027 -0.537382,1.4117 0.03461,7.8e-4 0.0115,0.0341 -0.05136,0.074 -0.153644,0.0976 -0.265428,0.6649 -0.131014,0.6649 0.05595,0 0.166336,0.12493 0.245297,0.27762 0.129308,0.25006 0.04723,0.41124 -0.09347,0.18357 -0.03197,-0.0517 -0.09689,-0.0701 -0.144273,-0.0408 -0.04738,0.0293 -0.08615,0.009 -0.08615,-0.0448 0,-0.0539 -0.061,-0.098 -0.135555,-0.098 -0.145761,0 -0.316882,0.26167 -0.377722,0.57759 -0.0207,0.10747 -0.07387,0.21929 -0.118161,0.24848 -0.1132426,0.0746 -1.248102,2.22778 -1.1741955,2.22778 0.033317,0 -0.00683,0.0674 -0.089207,0.14979 -0.2078363,0.20783 -0.7928728,1.38853 -0.7227599,1.45865 0.031516,0.0315 0.01452,0.0573 -0.037769,0.0573 -0.1220465,0 -0.6920509,1.06369 -0.6125867,1.14316 0.032929,0.0329 0.017906,0.0599 -0.033386,0.0599 -0.1106497,0 -0.6312344,0.92476 -0.5217465,0.92682 0.04135,7.4e-4 0.029933,0.032 -0.02537,0.0694 -0.148636,0.1005 -0.6241383,0.94689 -0.5328929,0.94855 0.04301,7.4e-4 0.032951,0.032 -0.022353,0.0694 -0.1634025,0.11048 -0.598612,0.91117 -0.5316566,0.97813 0.033847,0.0338 0.020074,0.0615 -0.030606,0.0615 -0.05068,0 -0.1925245,0.21863 -0.3152096,0.48584 -0.1226851,0.26721 -0.2651446,0.51643 -0.3165766,0.55383 -0.051432,0.0374 -0.059306,0.0686 -0.017497,0.0694 0.041809,7.4e-4 0.010576,0.0669 -0.069406,0.14684 -0.1609769,0.16097 -0.1952739,0.40982 -0.056484,0.40982 0.048916,0 0.8307389,-0.36819 1.7373844,-0.81819 z m 3.3994975,-1.49306 c 0.06177,-0.0513 0.131644,-0.0739 0.155272,-0.0503 0.02363,0.0236 0.195177,9.3e-4 0.381222,-0.0504 0.381235,-0.10526 0.389609,-0.13033 0.480461,-1.43823 0.06909,-0.99466 0.269459,-1.54578 0.740843,-2.03775 0.32019,-0.33417 0.447257,-0.40486 0.727686,-0.40486 0.186866,0 0.339757,-0.0416 0.339757,-0.0925 0,-0.16004 -0.566608,-0.10062 -0.878486,0.0921 -0.628987,0.38873 -1.064874,1.3578 -1.064874,2.36745 0,0.84322 -0.100455,1.33459 -0.272842,1.33459 -0.08533,0 -0.506513,0.12048 -0.9359656,0.26773 -1.0245311,0.3513 -1.1047154,0.38592 -1.1047154,0.47698 0,0.0873 1.2588631,-0.32142 1.431642,-0.46481 z m 4.213354,-2.26953 c 0,-0.0763 -0.04164,-0.13881 -0.09254,-0.13881 -0.0509,0 -0.09254,0.0625 -0.09254,0.13881 0,0.0763 0.04164,0.13881 0.09254,0.13881 0.0509,0 0.09254,-0.0625 0.09254,-0.13881 z m -0.134107,-0.47691 c -0.08559,-0.34103 -0.546778,-0.98978 -0.840363,-1.18214 -0.389374,-0.25513 -0.371564,-0.0981 0.03002,0.26474 0.20217,0.18265 0.419142,0.45657 0.482161,0.60871 0.06302,0.15215 0.149866,0.27663 0.192992,0.27663 0.04312,0 0.05444,0.0625 0.02514,0.13881 -0.02934,0.0765 -0.0027,0.13881 0.05921,0.13881 0.0755,0 0.09221,-0.0807 0.05084,-0.24556 z"
       id="path183" />
    <path
       style="fill:none;stroke-width:0.0925409"
       d="m 13.033063,301.59037 c -0.03828,-0.062 -0.1034,-0.0917 -0.144701,-0.0662 -0.129991,0.0803 -2.433637,-0.13135 -2.9616656,-0.27216 -0.2775695,-0.074 -0.5235984,-0.11565 -0.546731,-0.0925 -0.023132,0.0231 -0.090803,0.002 -0.1503778,-0.0478 -0.059575,-0.0494 -0.188337,-0.10384 -0.2861373,-0.12089 -0.3245699,-0.0566 -2.2029646,-1.05835 -2.9077761,-1.55074 -1.7330629,-1.21071 -3.4543162,-3.46203 -4.0999261,-5.36251 -0.077807,-0.22904 -0.1931044,-0.54137 -0.2562174,-0.69406 -0.063113,-0.15269 -0.1056239,-0.3505 -0.094469,-0.43957 0.011155,-0.0891 -0.018204,-0.16194 -0.065243,-0.16194 -0.047039,0 -0.065623,-0.10411 -0.041299,-0.23136 0.024324,-0.12724 0.00814,-0.23149 -0.035968,-0.23167 -0.044107,-1.9e-4 -0.090732,-0.23963 -0.1036115,-0.53211 -0.01288,-0.29249 -0.073148,-0.79495 -0.1339291,-1.11659 -0.085753,-0.45378 -0.085689,-0.62454 2.823e-4,-0.7622 0.060937,-0.0976 0.110794,-0.36077 0.110794,-0.58488 0,-0.89365 0.4336058,-2.56607 1.0046832,-3.87506 0.1054741,-0.24177 0.1620185,-0.44021 0.1256542,-0.44099 -0.036364,-7.8e-4 -0.022894,-0.032 0.029934,-0.0694 0.052828,-0.0374 0.3430954,-0.44278 0.6450381,-0.90086 0.6378262,-0.96765 1.8522516,-2.26532 2.7227026,-2.90934 0.7757583,-0.57396 2.607363,-1.49215 3.5874493,-1.79842 0.4171521,-0.13035 1.0313921,-0.26496 1.3649781,-0.29914 0.333587,-0.0342 0.606512,-0.0876 0.606503,-0.11877 -2.2e-5,-0.0702 1.974669,-0.0435 2.464346,0.0332 0.196993,0.0309 0.60803,0.0992 0.913415,0.15194 2.594392,0.4476 5.187898,2.08927 6.909008,4.37336 0.973291,1.29165 2.017942,3.7379 2.158856,5.05537 0.0329,0.30756 0.04413,2.90647 0.0149,3.44715 -0.0076,0.13997 -0.04797,0.25449 -0.08979,0.25449 -0.04181,0 -0.06686,0.0937 -0.05565,0.20822 0.01121,0.11452 -0.01103,0.28093 -0.04942,0.36981 -0.03839,0.0889 -0.07581,0.26584 -0.08316,0.39324 -0.0074,0.1274 -0.04271,0.23166 -0.07858,0.2317 -0.0694,7e-5 -0.198045,0.56525 -0.148963,0.65446 0.016,0.0291 -0.04618,0.12815 -0.138174,0.22015 -0.092,0.092 -0.145871,0.22303 -0.119718,0.29118 0.02615,0.0682 0.0068,0.14911 -0.04302,0.17989 -0.04981,0.0308 -0.220268,0.31322 -0.378788,0.62762 -0.91785,1.82043 -2.507191,3.48678 -4.375762,4.58777 -0.910018,0.5362 -1.815753,0.97045 -1.97169,0.94533 -0.06362,-0.0102 -0.115676,0.0235 -0.115676,0.0751 0,0.0515 -0.06246,0.0697 -0.138812,0.0404 -0.07861,-0.0302 -0.138811,-0.002 -0.138811,0.0646 0,0.0648 -0.02167,0.0962 -0.04815,0.0697 -0.02648,-0.0265 -0.411686,0.0283 -0.856003,0.1218 -0.444319,0.0935 -1.043831,0.17067 -1.332251,0.17154 -0.324527,9.8e-4 -0.538516,0.0439 -0.561437,0.11271 -0.02863,0.0859 -0.05285,0.0855 -0.106647,-0.001 z m -5.9926598,-6.58078 c 0.8325373,-0.41692 1.4943644,-0.77738 1.4707269,-0.80102 -0.04415,-0.0442 -1.7281761,0.69443 -2.6930373,1.18111 -0.2978109,0.15022 -0.5635813,0.25102 -0.5906008,0.224 -0.039844,-0.0399 1.0423909,-2.13548 2.0597699,-3.98853 0.3319513,-0.60461 1.6379705,-3.05691 2.315585,-4.34796 0.3468599,-0.66086 0.6957241,-1.31494 0.7752531,-1.45352 l 0.144599,-0.25194 0.667168,0.36616 c 0.366942,0.20139 0.691416,0.36616 0.721053,0.36616 0.103709,0 -0.131835,-0.32817 -0.597782,-0.83287 -0.370674,-0.4015 -0.458722,-0.55514 -0.416965,-0.72763 0.02911,-0.12025 0.325877,-0.84901 0.659473,-1.61946 0.333595,-0.77045 0.691145,-1.59862 0.794554,-1.84038 0.103408,-0.24177 0.216792,-0.43957 0.251964,-0.43957 0.03517,0 0.391013,0.71835 0.790756,1.59633 0.399744,0.87798 1.656452,3.45987 2.792683,5.73754 1.136232,2.27766 2.035944,4.1412 1.999363,4.1412 -0.03658,0 -0.245819,-0.0685 -0.464969,-0.15217 -0.557892,-0.21306 -0.607941,-0.0744 -0.116817,0.3237 0.936546,0.75911 1.466288,1.33951 1.925165,2.10927 0.476572,0.79944 0.56902,1.05067 0.386619,1.05067 -0.05191,0 -0.473371,-0.19033 -0.936569,-0.42296 -1.003808,-0.50415 -1.282564,-0.61602 -1.282564,-0.51475 0,0.0846 1.379481,0.75263 1.554171,0.75263 0.06136,0 0.111565,0.0416 0.111565,0.0925 0,0.0509 0.03208,0.0821 0.07129,0.0694 0.03921,-0.0127 0.247851,0.0563 0.463649,0.15329 0.215797,0.097 0.41566,0.15313 0.444141,0.12465 0.02848,-0.0285 -0.03566,-0.21198 -0.142543,-0.40778 -0.106879,-0.1958 -0.313155,-0.57483 -0.458391,-0.8423 -0.332187,-0.61175 -0.832705,-1.2494 -1.384365,-1.76363 l -0.428164,-0.39912 0.300758,0.0594 c 0.369521,0.073 0.385227,-0.0393 0.07787,-0.55678 -0.120915,-0.20359 -0.393944,-0.72413 -0.606732,-1.15676 -0.212789,-0.43263 -0.442175,-0.84907 -0.509746,-0.92541 -0.06757,-0.0763 -0.231506,-0.39876 -0.364298,-0.71648 -0.132794,-0.31772 -0.690014,-1.48373 -1.238269,-2.59115 -0.548254,-1.10741 -1.282567,-2.6173 -1.631806,-3.35532 -1.189057,-2.51272 -1.275313,-2.68369 -1.35396,-2.68369 -0.0809,0 -0.747775,1.3452 -0.871656,1.75828 -0.03816,0.12725 -0.208159,0.52721 -0.377776,0.8888 -0.169617,0.3616 -0.337962,0.77525 -0.374101,0.91924 -0.03614,0.14399 -0.121484,0.36868 -0.189656,0.49932 -0.146458,0.28065 -0.160479,0.46887 -0.03493,0.46887 0.04959,0 0.154768,0.12493 0.233729,0.27762 0.161636,0.31257 0.11558,0.33677 -0.26412,0.13873 -0.318191,-0.16595 -0.397257,-0.12801 -0.475483,0.22815 -0.03288,0.14972 -0.133814,0.36787 -0.224288,0.48478 -0.090474,0.11691 -0.3844197,0.64982 -0.6532122,1.18424 -0.5311392,1.05603 -0.5206322,1.03666 -0.9285821,1.71201 -0.153726,0.25449 -0.3061298,0.56681 -0.3386752,0.69406 -0.032545,0.12724 -0.087599,0.25217 -0.1223412,0.27762 -0.128708,0.0943 -0.5561213,0.90066 -0.5561213,1.04922 0,0.0846 -0.031233,0.15385 -0.069406,0.15391 -0.038173,5e-5 -0.1921795,0.21868 -0.3422365,0.48584 -0.1500568,0.26716 -0.2574818,0.48574 -0.238722,0.48574 0.01876,0 -0.077094,0.17616 -0.213009,0.39146 -0.1359148,0.2153 -0.2471178,0.4523 -0.2471178,0.52665 0,0.0743 -0.044337,0.16259 -0.098527,0.19608 -0.09142,0.0565 -0.2129533,0.27461 -0.8268818,1.48394 -0.1272437,0.25065 -0.2628443,0.46969 -0.3013346,0.48676 -0.03849,0.0171 -0.04936,0.0644 -0.024154,0.10519 0.025205,0.0408 -0.016179,0.12561 -0.091964,0.18851 -0.075786,0.0629 -0.1377925,0.16988 -0.1377925,0.23773 0,0.18211 0.4283369,0.0114 2.2077604,-0.87967 z m 10.2825838,-0.56523 c -0.265432,-0.16723 -2.185685,-0.90761 -2.513475,-0.9691 -0.381376,-0.0716 -0.445155,-0.23884 -0.445155,-1.16762 0,-0.34413 -0.03858,-0.54367 -0.105119,-0.54367 -0.07182,0 -0.08648,0.13602 -0.04627,0.42935 0.03237,0.23614 0.05885,0.60946 0.05885,0.82961 0,0.45858 0.115951,0.55774 0.744603,0.63672 0.217609,0.0273 0.44101,0.0863 0.496447,0.13093 0.168026,0.13538 1.85564,0.83016 1.902537,0.78326 0.02404,-0.024 -0.01754,-0.0823 -0.09242,-0.12948 z m -8.0831506,-0.40373 c 0.1972648,-0.0712 0.4835936,-0.1822 0.6362861,-0.24673 0.3385345,-0.14308 0.3730375,-0.15298 0.5838285,-0.16755 0.399101,-0.0276 0.487571,-0.21315 0.580265,-1.21716 0.116237,-1.259 0.289703,-1.76869 0.77396,-2.27408 0.322228,-0.3363 0.449065,-0.40704 0.72977,-0.40704 0.186866,0 0.339757,-0.0416 0.339757,-0.0925 0,-0.14872 -0.486658,-0.10661 -0.802143,0.0694 -0.739335,0.41247 -1.040273,1.08327 -1.143054,2.54791 -0.04252,0.60598 -0.09074,1.11006 -0.107145,1.12018 -0.01641,0.0101 -0.342155,0.10754 -0.723886,0.21649 -0.7885985,0.22506 -1.6019237,0.56418 -1.3766137,0.57398 0.082672,0.004 0.3117103,-0.0517 0.5089751,-0.12286 z m 5.0319796,-2.60056 c 0,-0.0763 -0.04164,-0.13881 -0.09254,-0.13881 -0.0509,0 -0.09254,0.0625 -0.09254,0.13881 0,0.0763 0.04164,0.13881 0.09254,0.13881 0.0509,0 0.09254,-0.0625 0.09254,-0.13881 z m -0.134107,-0.47691 c -0.09779,-0.38964 -0.58778,-1.03583 -0.911341,-1.20188 -0.282227,-0.14483 -0.275925,-0.13012 0.131831,0.30769 0.235525,0.25288 0.456958,0.55031 0.492076,0.66095 0.03512,0.11065 0.10138,0.20118 0.14725,0.20118 0.04587,0 0.05943,0.0625 0.03013,0.13881 -0.02934,0.0765 -0.0027,0.13881 0.05921,0.13881 0.0755,0 0.09221,-0.0807 0.05084,-0.24556 z"
       id="path185" />
  </g>
</svg>
